<svg width="400" height="80" viewBox="0 0 400 80" fill="none" xmlns="http://www.w3.org/2000/svg">
<g clip-path="url(#clip0_508_2392)">
<path d="M33.2181 3.03418L20.5179 41.8545H12.7002L0 3.03418H8.81959L16.5667 28.9426L24.3421 3.03418H33.2181Z" fill="#FFFFFF"/>
<path d="M44.8596 4.92505C44.8662 5.59017 44.7315 6.24912 44.4645 6.85831C44.2136 7.44179 43.849 7.96946 43.392 8.41055C42.9327 8.85494 42.3974 9.21339 41.8116 9.4689C41.2004 9.72975 40.5428 9.86422 39.8783 9.86422C39.2138 9.86422 38.5562 9.72975 37.945 9.4689C37.3616 9.21664 36.8304 8.85772 36.3787 8.41055C35.9259 7.96891 35.5661 7.44114 35.3203 6.85831C34.9383 5.95451 34.8349 4.95718 35.0234 3.99422C35.212 3.03127 35.6839 2.1466 36.3787 1.45367C36.8266 1.00193 37.3588 0.642367 37.945 0.395315C38.5562 0.13447 39.2138 0 39.8783 0C40.5428 0 41.2004 0.13447 41.8116 0.395315C42.4001 0.645743 42.9363 1.00478 43.392 1.45367C43.8443 1.91085 44.2017 2.45287 44.4439 3.04859C44.686 3.64432 44.8081 4.28201 44.8032 4.92505H44.8596ZM43.5896 41.798H36.1388V12.8133H43.5896V41.798Z" fill="#FFFFFF"/>
<path d="M65.1377 41.7978H48.2041V34.4458H65.1377C65.6136 34.4425 66.0698 34.2559 66.4115 33.9247C66.7532 33.5935 66.954 33.1433 66.9722 32.6678C67.0009 32.4617 66.9646 32.2517 66.8685 32.0671C66.7724 31.8825 66.6213 31.7324 66.436 31.6377C66.0243 31.4692 65.5824 31.3876 65.1377 31.3978H57.447C56.2092 31.4097 54.9829 31.1596 53.8486 30.664C52.7543 30.198 51.7619 29.522 50.9276 28.6743C50.0789 27.7924 49.4124 26.7518 48.9661 25.6121C48.491 24.4719 48.2464 23.249 48.2464 22.0137C48.2464 20.7785 48.491 19.5555 48.9661 18.4154C49.4234 17.319 50.0896 16.3221 50.9276 15.4802C51.7706 14.6501 52.7613 13.9849 53.8486 13.5187C54.9941 13.0729 56.2187 12.8664 57.447 12.9119H72.4192V20.278H57.447C57.2044 20.2756 56.9639 20.3232 56.7405 20.4179C56.5171 20.5125 56.3157 20.6523 56.1488 20.8284C55.9732 20.9949 55.8346 21.1966 55.7422 21.4203C55.6499 21.644 55.6057 21.8847 55.6126 22.1266C55.5958 22.3865 55.635 22.647 55.7275 22.8904C55.82 23.1338 55.9637 23.3546 56.1488 23.5378C56.3157 23.7139 56.5171 23.8536 56.7405 23.9483C56.9639 24.043 57.2044 24.0906 57.447 24.0881H65.1377C66.3566 24.0793 67.5668 24.2945 68.7079 24.7231C69.7892 25.1176 70.7819 25.7218 71.6289 26.5012C72.4901 27.2797 73.1767 28.2317 73.6436 29.2945C74.1106 30.3573 74.3473 31.507 74.3383 32.6678C74.3493 33.8995 74.1042 35.1201 73.6186 36.2521C73.1379 37.3425 72.4638 38.3369 71.6289 39.1872C70.7929 40.0223 69.8003 40.6841 68.7079 41.1346C67.574 41.5918 66.3601 41.8173 65.1377 41.7978Z" fill="#FFFFFF"/>
<path d="M94.1934 41.7978H77.2598V34.4458H94.1934C94.6692 34.4425 95.1255 34.2559 95.4672 33.9247C95.8089 33.5935 96.0097 33.1433 96.0278 32.6678C96.0524 32.4621 96.0144 32.2537 95.9187 32.07C95.8231 31.8862 95.6742 31.7355 95.4916 31.6377C95.0792 31.4719 94.6378 31.3903 94.1934 31.3978H86.5027C85.2649 31.4097 84.0386 31.1596 82.9043 30.664C81.8037 30.2019 80.8059 29.5256 79.9691 28.6743C79.1253 27.7886 78.4594 26.749 78.0077 25.6121C77.5326 24.4719 77.288 23.249 77.288 22.0137C77.288 20.7785 77.5326 19.5555 78.0077 18.4154C78.4622 17.3176 79.1287 16.3201 79.9688 15.4799C80.809 14.6397 81.8065 13.9733 82.9043 13.5187C84.0498 13.0729 85.2744 12.8664 86.5027 12.9119H101.475V20.278H86.5027C86.0266 20.2883 85.5722 20.4792 85.2316 20.8119C84.891 21.1447 84.6896 21.5945 84.6682 22.0702C84.6542 22.331 84.696 22.5918 84.791 22.8352C84.8859 23.0786 85.0316 23.2989 85.2186 23.4813C85.3844 23.6588 85.5856 23.7995 85.8093 23.8943C86.0329 23.9891 86.2739 24.0359 86.5168 24.0317H94.2075C95.4263 24.0241 96.6362 24.2393 97.7777 24.6667C98.8558 25.0676 99.8473 25.6711 100.699 26.4447C101.557 27.2365 102.241 28.1992 102.705 29.271C103.169 30.3428 103.404 31.4999 103.394 32.6678C103.407 33.9012 103.157 35.1232 102.66 36.2521C102.191 37.3454 101.521 38.341 100.685 39.1872C99.8365 40.045 98.8252 40.7242 97.7103 41.1846C96.5954 41.6451 95.3996 41.8776 94.1934 41.8684V41.7978Z" fill="#FFFFFF"/>
<path d="M118.846 34.7141C119.131 34.7976 119.424 34.8543 119.721 34.8834C120.003 34.8834 120.299 34.8834 120.581 34.8834C121.288 34.886 121.992 34.7861 122.67 34.5871C123.331 34.3924 123.963 34.1075 124.547 33.7404C125.136 33.3456 125.668 32.8707 126.127 32.3293C126.583 31.7938 126.958 31.1948 127.242 30.5513L132.647 36.097C131.963 37.0623 131.167 37.9434 130.276 38.7217C129.412 39.4836 128.465 40.1462 127.454 40.6973C126.414 41.2328 125.315 41.6448 124.18 41.925C123.02 42.2081 121.831 42.3502 120.638 42.3483C118.661 42.3593 116.703 41.9705 114.88 41.2053C113.081 40.4837 111.445 39.4089 110.068 38.0444C108.694 36.659 107.61 35.0136 106.879 33.2042C106.124 31.2338 105.769 29.1326 105.835 27.0234C105.805 24.8746 106.198 22.7408 106.992 20.7439C107.698 18.9515 108.762 17.3215 110.118 15.9532C111.474 14.585 113.094 13.507 114.88 12.7851C116.707 12.0354 118.664 11.6565 120.638 11.6703C121.837 11.6661 123.032 11.8131 124.194 12.1077C125.334 12.3928 126.438 12.8095 127.482 13.3495C128.527 13.8943 129.503 14.5623 130.389 15.3392C131.285 16.1219 132.085 17.0076 132.774 17.9781L118.846 34.7141ZM122.642 19.4739C122.314 19.3496 121.973 19.2643 121.626 19.2198C121.287 19.2198 120.948 19.2198 120.581 19.2198C119.614 19.2179 118.655 19.4049 117.759 19.7702C116.864 20.125 116.059 20.6745 115.402 21.3789C114.721 22.0947 114.188 22.9389 113.836 23.8625C113.45 24.9053 113.258 26.0102 113.272 27.1222C113.272 27.3903 113.272 27.7008 113.272 28.0394C113.299 28.3899 113.346 28.7386 113.413 29.0837C113.413 29.4365 113.554 29.7751 113.639 30.0997C113.719 30.4004 113.838 30.6897 113.991 30.9605L122.642 19.4739Z" fill="#FFFFFF"/>
<path d="M143.809 41.7977H136.429V12.813H138.207L140.648 16.242C143.055 14.0762 146.174 12.8708 149.411 12.8553H155.945V20.2214H149.411C148.66 20.2203 147.917 20.369 147.224 20.6589C146.553 20.9293 145.943 21.3324 145.432 21.844C144.92 22.3556 144.517 22.9653 144.246 23.6364C143.957 24.3291 143.808 25.0727 143.809 25.8236V41.7977Z" fill="#FFFFFF"/>
<path d="M214.211 41.7979H206.463V14.0832C206.463 13.5596 206.357 13.0414 206.153 12.5592C205.947 12.1022 205.66 11.6862 205.306 11.3315C204.575 10.6133 203.593 10.2083 202.569 10.2026C202.045 10.2018 201.526 10.3074 201.045 10.5131C200.586 10.7036 200.169 10.9816 199.817 11.3315C199.463 11.6829 199.18 12.0999 198.984 12.5592C198.785 13.0423 198.684 13.5605 198.688 14.0832V41.7979H190.927V14.0832C190.933 13.5589 190.827 13.0393 190.616 12.5592C190.427 12.1001 190.149 11.683 189.798 11.3319C189.446 10.9807 189.029 10.7024 188.57 10.5131C188.088 10.3089 187.57 10.2033 187.046 10.2026C185.994 10.1937 184.98 10.5992 184.224 11.3315C183.879 11.6874 183.601 12.1035 183.406 12.5592C183.206 13.0423 183.105 13.5605 183.109 14.0832V41.7979H175.404V14.0832C175.398 12.522 175.71 10.9758 176.322 9.53938C176.897 8.15932 177.742 6.9074 178.805 5.85632C179.869 4.79111 181.129 3.9428 182.517 3.35861C184.554 2.49772 186.796 2.23824 188.976 2.61083C191.157 2.98343 193.185 3.97252 194.822 5.4612C196.935 3.52284 199.701 2.44997 202.569 2.45549C204.124 2.44553 205.666 2.75283 207.098 3.35861C208.484 3.94655 209.743 4.7944 210.81 5.85632C212.991 8.04414 214.214 11.0082 214.211 14.0973V41.7979Z" fill="#FFFFFF"/>
<path d="M248.049 27.023C248.063 29.0985 247.665 31.1562 246.878 33.0768C246.14 34.8755 245.067 36.5179 243.717 37.917C242.376 39.2863 240.78 40.3793 239.018 41.1344C237.197 41.9166 235.236 42.3201 233.254 42.3201C231.272 42.3201 229.31 41.9166 227.489 41.1344C225.721 40.3829 224.12 39.2895 222.776 37.917C221.408 36.5267 220.324 34.8825 219.587 33.0768C218.804 31.1553 218.411 29.0976 218.43 27.023C218.407 24.9252 218.801 22.8437 219.587 20.8987C220.317 19.0852 221.402 17.4351 222.776 16.0444C224.137 14.6527 225.765 13.5484 227.561 12.797C229.357 12.0455 231.285 11.6623 233.232 11.6699C235.214 11.6546 237.18 12.0285 239.018 12.7706C240.78 13.4746 242.379 14.531 243.717 15.8751C245.105 17.274 246.203 18.9333 246.949 20.7576C247.722 22.7538 248.096 24.8826 248.049 27.023ZM240.599 27.023C240.613 25.9189 240.417 24.8221 240.02 23.7915C239.661 22.8989 239.139 22.0807 238.482 21.3785C237.817 20.694 237.02 20.1516 236.139 19.7839C234.305 19.0498 232.259 19.0498 230.424 19.7839C229.53 20.1412 228.722 20.6848 228.054 21.3785C227.371 22.0966 226.843 22.9465 226.501 23.8762C226.115 24.8802 225.919 25.9473 225.923 27.023C225.914 28.0854 226.111 29.1395 226.501 30.1275C226.85 31.0538 227.377 31.9025 228.054 32.6252C228.714 33.3264 229.505 33.892 230.382 34.2904C231.268 34.6935 232.231 34.9005 233.204 34.8972C234.173 34.8994 235.133 34.7075 236.026 34.3327C236.94 33.9778 237.775 33.4455 238.482 32.7663C239.164 32.0425 239.7 31.1946 240.062 30.2686C240.444 29.2303 240.626 28.129 240.599 27.023Z" fill="#FFFFFF"/>
<path d="M259.521 41.7979H252.127V12.8132H253.919L256.36 15.6355C258.76 13.4581 261.883 12.2509 265.124 12.2488C266.846 12.238 268.551 12.584 270.133 13.2648C271.676 13.93 273.076 14.8885 274.254 16.0871C275.451 17.2714 276.409 18.6752 277.076 20.2217C277.756 21.8185 278.102 23.5379 278.092 25.2735V41.7979H270.655V25.2312C270.653 24.4943 270.505 23.7651 270.218 23.0863C269.939 22.4235 269.537 21.8201 269.032 21.3083C268.526 20.8031 267.927 20.4006 267.268 20.1229C266.593 19.8267 265.861 19.6776 265.124 19.6855C264.021 19.6716 262.94 19.9882 262.02 20.5943C261.099 21.2005 260.381 22.0684 259.959 23.0863C259.665 23.7631 259.516 24.4936 259.521 25.2312V41.7979Z" fill="#FFFFFF"/>
<path d="M297.452 41.7978C295.721 41.81 294.006 41.4641 292.415 40.7818C289.303 39.4575 286.824 36.9793 285.5 33.8672C284.818 32.2759 284.472 30.5608 284.484 28.8295V20.2215H280.886V12.9119H284.484V1.27002H291.85V12.9119H303.055V20.278H291.85V28.8859C291.875 30.356 292.472 31.7584 293.515 32.7948C294.034 33.3018 294.641 33.7085 295.308 33.9942C295.997 34.295 296.742 34.4488 297.495 34.4458H303.139V41.7978H297.452Z" fill="#FFFFFF"/>
<path d="M335.271 41.798H333.493L330.671 37.8186C329.966 38.4572 329.221 39.051 328.442 39.5966C327.655 40.137 326.825 40.6091 325.958 41.0077C325.101 41.4108 324.208 41.7321 323.291 41.9673C322.369 42.202 321.42 42.3205 320.469 42.3201C318.503 42.3298 316.552 41.9807 314.711 41.29C312.954 40.6277 311.351 39.6146 309.998 38.3125C308.618 36.9456 307.537 35.307 306.823 33.5005C306.013 31.4389 305.615 29.2383 305.652 27.0234C305.63 24.8923 306.028 22.7777 306.823 20.8003C307.554 18.9902 308.633 17.341 309.998 15.946C311.34 14.6098 312.932 13.5502 314.683 12.8274C316.508 12.0707 318.465 11.6869 320.44 11.6985C321.393 11.6931 322.341 11.8117 323.263 12.0513C324.186 12.2889 325.084 12.615 325.944 13.025C326.813 13.4191 327.644 13.8914 328.427 14.4361C329.207 14.9802 329.943 15.5841 330.629 16.2424L333.451 12.7992H335.229L335.271 41.798ZM327.835 27.0234C327.836 26.0152 327.634 25.017 327.242 24.0883C326.872 23.1579 326.336 22.3022 325.662 21.5623C324.999 20.8351 324.204 20.2412 323.319 19.8125C322.444 19.3723 321.477 19.1451 320.497 19.1493C319.533 19.1485 318.577 19.3206 317.675 19.6573C316.8 19.9892 316.006 20.504 315.346 21.1672C314.668 21.8828 314.14 22.7274 313.794 23.6508C313.041 25.8362 313.041 28.2106 313.794 30.396C314.14 31.3153 314.668 32.1552 315.346 32.8655C316.005 33.5331 316.799 34.0527 317.675 34.3895C318.577 34.7263 319.533 34.8983 320.497 34.8975C321.476 34.895 322.441 34.6681 323.319 34.2343C324.205 33.8005 325 33.2019 325.662 32.4704C326.336 31.7357 326.872 30.8846 327.242 29.9586C327.633 29.0293 327.834 28.0315 327.835 27.0234Z" fill="#FFFFFF"/>
<path d="M368.984 38.1431C368.996 40.118 368.597 42.074 367.812 43.8864C366.296 47.4265 363.47 50.243 359.924 51.7464C358.103 52.5191 356.144 52.9128 354.167 52.9035H350.469V45.4527H354.124C355.125 45.4773 356.123 45.3293 357.074 45.0153C357.829 44.7442 358.525 44.327 359.12 43.7876C359.676 43.2912 360.131 42.6923 360.46 42.0237C360.799 41.3468 361.068 40.6377 361.265 39.907C360.958 40.3904 360.53 40.7846 360.023 41.05C359.453 41.3679 358.847 41.6144 358.217 41.7838C357.544 41.9829 356.854 42.1153 356.156 42.1789C355.451 42.1789 354.745 42.2918 354.167 42.2918C352.202 42.3056 350.254 41.9464 348.423 41.2334C346.671 40.5876 345.068 39.594 343.71 38.3124C342.327 36.9453 341.241 35.307 340.521 33.5004C339.719 31.4613 339.326 29.2846 339.364 27.0939C339.343 25.0053 339.736 22.9333 340.521 20.9978C341.26 19.1845 342.343 17.5313 343.71 16.1294C345.068 14.7207 346.697 13.6019 348.499 12.8403C350.301 12.0787 352.238 11.6903 354.195 11.6984C355.147 11.6933 356.096 11.8119 357.017 12.0512C357.939 12.2912 358.837 12.6172 359.698 13.0249C360.563 13.4191 361.389 13.8914 362.168 14.436C362.949 14.9834 363.69 15.5871 364.383 16.2423L367.205 12.7991H368.998L368.984 38.1431ZM361.533 27.0233C361.532 26.0167 361.335 25.0199 360.954 24.0882C360.578 23.1606 360.044 22.3058 359.374 21.5622C358.702 20.8468 357.903 20.2629 357.017 19.8406C356.141 19.4025 355.174 19.1753 354.195 19.1774C353.231 19.1748 352.275 19.3469 351.373 19.6854C350.498 20.0174 349.704 20.5321 349.044 21.1953C348.361 21.9073 347.833 22.7529 347.492 23.6789C347.076 24.7451 346.861 25.8789 346.857 27.0233C346.842 28.1367 347.039 29.2427 347.435 30.283C347.786 31.2041 348.313 32.0478 348.988 32.7666C349.662 33.4632 350.474 34.0111 351.373 34.3753C352.269 34.7406 353.227 34.9276 354.195 34.9257C355.174 34.9212 356.139 34.6944 357.017 34.2624C357.901 33.8249 358.695 33.2267 359.36 32.4985C360.03 31.7608 360.565 30.9105 360.94 29.9867C361.328 29.0467 361.529 28.0402 361.533 27.0233Z" fill="#FFFFFF"/>
<path d="M386.143 34.7139C386.429 34.7975 386.722 34.8542 387.018 34.8833C387.305 34.8977 387.592 34.8977 387.879 34.8833C388.585 34.8848 389.289 34.785 389.967 34.5869C390.628 34.3895 391.259 34.1047 391.844 33.7402C392.432 33.349 392.96 32.8735 393.41 32.3291C393.87 31.794 394.251 31.1951 394.539 30.5511L399.958 35.9981C399.274 36.9634 398.478 37.8444 397.587 38.6228C396.696 39.3892 395.721 40.052 394.68 40.5983C393.643 41.1383 392.543 41.5506 391.406 41.826C388.936 42.4383 386.35 42.4027 383.898 41.7229C381.446 41.0431 379.21 39.742 377.408 37.9454C376.043 36.5555 374.964 34.911 374.233 33.1052C373.443 31.1515 373.049 29.06 373.076 26.9527C373.046 24.8038 373.439 22.6701 374.233 20.6731C374.935 18.8782 375.997 17.246 377.353 15.8772C378.71 14.5084 380.333 13.432 382.121 12.7143C383.947 11.9636 385.904 11.5846 387.879 11.5995C389.073 11.5949 390.263 11.7419 391.421 12.037C392.562 12.3173 393.666 12.7343 394.708 13.2788C396.82 14.372 398.636 15.96 400 17.9073L386.143 34.7139ZM389.939 19.4737C389.61 19.3527 389.27 19.2676 388.923 19.2197C388.584 19.2197 388.246 19.2197 387.879 19.2197C386.911 19.2163 385.952 19.4033 385.056 19.77C384.161 20.1248 383.356 20.6743 382.7 21.3787C382.018 22.0945 381.486 22.9387 381.133 23.8623C380.74 24.9033 380.549 26.0095 380.569 27.122C380.569 27.3901 380.569 27.7006 380.569 28.0393C380.569 28.3779 380.569 28.7307 380.696 29.0835C380.823 29.4363 380.837 29.775 380.936 30.0995C381.01 30.4023 381.129 30.6924 381.289 30.9603L389.939 19.4737Z" fill="#FFFFFF"/>
<path d="M400 65.519H0V79.6022H400V65.519Z" fill="#FFFFFF"/>
</g>
<defs>
<clipPath id="clip0_508_2392">
<rect width="400" height="80" fill="white"/>
</clipPath>
</defs>
</svg>
