####
#
# OBJ File Generated by Meshlab
#
####
# Object wall_roof_4_carcas.obj
#
# Vertices: 65
# Faces: 89
#
####
mtllib ./wall_roof_4_carcas.obj.mtl

vn 0.000174 0.000507 -0.000102
v -0.000015 0.049999 -3.197906
vn -0.000262 0.000293 -0.000079
v -0.023828 0.049999 -3.197906
vn -0.000262 0.000293 0.000079
v -0.023819 0.049995 -0.086602
vn 0.000174 0.000507 0.000102
v -0.000007 0.049995 -0.086602
vn -0.000052 -0.000021 -0.000079
v -0.023827 -0.000001 -3.284509
vn -0.000052 -0.000021 0.000079
v -0.023818 -0.000005 0.000002
vn 0.000226 0.000058 -0.000134
v 0.000986 0.000999 -3.282777
vn 0.000310 0.000280 -0.000134
v 0.000985 0.048999 -3.199638
vn 0.000310 0.000280 0.000134
v 0.000993 0.048995 -0.084870
vn 0.000226 0.000058 0.000134
v 0.000994 0.000995 -0.001730
vn 0.000048 -0.000029 -0.000102
v -0.000014 -0.000001 -3.284509
vn 0.000048 -0.000029 0.000102
v -0.000006 -0.000005 0.000002
vn 0.000190 0.000418 0.000334
v -0.000014 0.876679 -1.618251
vn 0.000161 0.000428 -0.000013
v -0.000014 0.890404 -1.642251
vn -0.000210 0.000273 -0.000000
v -0.023826 0.890404 -1.642251
vn -0.000288 0.000247 0.000189
v -0.023826 0.876679 -1.618251
vn 0.000444 0.000143 0.000228
v 0.000986 0.875679 -1.618251
vn 0.000448 0.000259 0.000041
v 0.000986 0.889404 -1.641751
vn 0.000237 0.000381 -0.000294
v -0.000013 0.876679 -1.666251
vn 0.000196 0.000175 -0.000400
v -0.000013 0.875679 -1.667251
vn -0.000236 0.000111 -0.000268
v -0.023826 0.875679 -1.667251
vn -0.000288 0.000247 -0.000189
v -0.023826 0.876679 -1.666251
vn -0.000236 0.000111 0.000268
v -0.023826 0.875679 -1.617251
vn 0.000093 0.000224 0.000498
v -0.000428 0.875679 -1.617251
vn 0.000224 0.000093 0.000498
v -0.000014 0.875264 -1.617251
vn 0.000111 0.000000 0.000268
v -0.000014 0.050031 -1.617236
vn 0.000268 0.000000 0.000111
v 0.000987 0.050032 -1.618236
vn 0.000560 0.000155 -0.000117
v 0.000987 0.875679 -1.665251
vn 0.000518 0.000064 -0.000219
v 0.000987 0.874678 -1.666251
vn 0.000268 -0.000000 -0.000111
v 0.000987 0.050064 -1.666237
vn 0.000314 0.000000 0.000000
v 0.000987 0.050048 -1.642236
vn -0.000157 -0.000000 -0.000157
v -0.023825 0.050065 -1.667236
vn 0.000111 -0.000000 -0.000268
v -0.000013 0.050065 -1.667236
vn -0.000157 0.000000 0.000157
v -0.023826 0.050031 -1.617236
vn -0.000314 -0.000000 -0.000000
v -0.023826 0.050048 -1.642236
vn -0.000236 0.000177 0.000230
v -0.023819 0.049862 -0.084364
vn 0.000093 0.000319 0.000443
v -0.000421 0.049862 -0.084364
vn 0.000224 0.000385 0.000329
v -0.000006 0.050069 -0.084723
vn 0.000084 0.000209 0.000120
v -0.000008 0.948156 -1.642265
vn -0.000105 0.000136 0.000078
v -0.023821 0.948155 -1.642265
vn 0.000294 -0.000114 -0.000065
v -0.015249 0.049526 -0.182010
vn 0.000293 -0.000072 -0.000038
v 0.000992 0.891659 -1.642265
vn 0.000243 0.000119 0.000070
v 0.000992 0.947002 -1.642265
vn 0.000226 0.000135 0.000078
v 0.000994 0.049532 -0.085796
vn -0.000245 -0.000061 -0.000038
v -0.040062 0.049526 -0.184016
vn -0.000209 -0.000136 -0.000078
v -0.023821 0.890506 -1.642265
vn 0.000139 -0.000256 -0.000146
v -0.000008 0.890506 -1.642265
vn 0.000172 -0.000289 -0.000165
v -0.016249 0.049526 -0.184017
vn -0.000130 0.000055 0.000160
v -0.023819 0.049532 -0.084276
vn 0.000084 0.000094 0.000256
v -0.000321 0.049532 -0.084276
vn 0.000184 0.000153 0.000140
v 0.000494 0.049532 -0.084794
vn 0.000226 0.000150 -0.000087
v 0.000980 0.049536 -3.196711
vn 0.000243 0.000120 -0.000069
v 0.000987 0.947001 -1.642265
vn 0.000293 -0.000072 0.000042
v 0.000987 0.891577 -1.642265
vn 0.000310 -0.000042 0.000024
v 0.000980 0.049536 -3.100711
vn -0.000052 0.000136 -0.000079
v -0.023832 0.049536 -3.198711
vn -0.000183 0.000136 -0.000079
v -0.023826 0.948155 -1.642266
vn 0.000123 0.000257 -0.000148
v -0.000013 0.948156 -1.642266
vn 0.000048 0.000178 -0.000103
v -0.000020 0.049536 -3.198711
vn -0.000262 -0.000136 0.000079
v -0.023833 0.049536 -3.098711
vn -0.000209 -0.000136 0.000079
v -0.023826 0.890422 -1.642265
vn -0.000236 0.000000 0.000000
v -0.023826 0.948155 -1.642265
vn 0.000174 -0.000286 0.000165
v -0.000020 0.049536 -3.098711
vn 0.000138 -0.000256 0.000148
v -0.000013 0.890422 -1.642265
vn 0.000169 0.000156 -0.000090
v -0.000013 0.948155 -1.642265
# 65 vertices, 0 vertices normals


usemtl material_0
vt 0.062758 0.603137
vt 0.051933 0.602757
f 1/1/1 2/2/2 3/2/3
f 1/1/1 3/2/3 4/1/4
vt 0.152305 0.630965
vt 0.140592 0.649711
f 2/3/2 5/4/5 6/4/6
f 2/3/2 6/4/6 3/3/3
vt 0.112430 0.655374
vt 0.102462 0.636640
f 7/5/7 8/6/8 9/6/9
f 7/5/7 9/6/9 10/5/10
vt 0.090300 0.577593
vt 0.079475 0.577219
f 5/7/5 11/8/11 12/8/12
f 5/7/5 12/8/12 6/7/6
vt 0.102163 0.636245
f 8/6/8 1/9/1 4/9/4
f 8/6/8 4/9/4 9/6/9
vt 0.079176 0.576824
f 11/8/11 7/10/7 10/10/10
f 11/8/11 10/10/10 12/8/12
f 1/1/1 8/6/8 7/5/7
f 1/1/1 7/5/7 11/8/11
f 1/1/1 11/8/11 5/7/5
f 1/1/1 5/7/5 2/3/2
f 3/2/3 6/4/6 12/8/12
f 3/2/3 12/8/12 10/10/10
f 3/2/3 10/10/10 9/6/9
f 3/2/3 9/6/9 4/9/4
vt 0.028431 0.944385
vt 0.033737 0.944382
vt 0.033743 0.955215
f 13/11/13 14/12/14 15/13/15
vt 0.028437 0.955218
f 13/11/13 15/13/15 16/14/16
vt 0.028431 0.944072
vt 0.033626 0.944071
f 13/11/13 17/15/17 18/16/18
f 13/11/13 18/16/18 14/12/14
vt 0.866022 0.380497
vt 0.866033 0.380185
vt 0.876860 0.380562
f 19/17/19 20/18/20 21/19/21
vt 0.876849 0.380874
f 19/17/19 21/19/21 22/20/22
vt 0.893947 0.386303
vt 0.893942 0.385889
vt 0.904676 0.386066
f 16/21/16 23/22/23 24/23/24
vt 0.904799 0.386330
f 16/21/16 24/23/24 13/24/13
vt 0.905051 0.386134
vt 0.904759 0.386018
vt 0.908390 0.275022
f 17/25/17 25/26/25 26/27/26
vt 0.908681 0.275157
f 17/25/17 26/27/26 27/28/27
f 13/24/13 24/23/24 25/26/25
f 13/24/13 25/26/25 17/25/17
vt 0.916278 0.385882
vt 0.916473 0.385645
vt 0.916776 0.385879
f 28/29/28 29/30/29 20/31/20
vt 0.916575 0.386125
f 28/29/28 20/31/20 19/32/19
vt 0.039040 0.839168
vt 0.039043 0.943850
vt 0.038822 0.944070
f 30/33/30 29/34/29 28/35/28
f 30/33/30 28/35/28 18/16/18
vt 0.033734 0.836104
f 30/33/30 18/16/18 31/36/31
vt 0.880510 0.275851
f 32/37/32 21/19/21 20/18/20
vt 0.869683 0.275474
f 32/37/32 20/18/20 33/38/33
vt 0.799339 0.756420
vt 0.709717 0.690663
vt 0.709670 0.690354
f 34/39/34 23/40/23 16/41/16
vt 0.712809 0.686076
f 34/39/34 16/41/16 15/42/15
vt 0.800035 0.750075
f 34/39/34 15/42/15 35/43/35
f 26/27/26 25/26/25 24/23/24
f 26/27/26 24/23/24 23/22/23
vt 0.897577 0.274760
f 26/27/26 23/22/23 34/44/34
vt 0.918510 0.281115
f 33/45/33 20/31/20 29/30/29
vt 0.918207 0.280980
f 33/45/33 29/30/29 30/46/30
vt 0.039043 0.944380
vt 0.039049 0.955212
f 14/12/14 19/47/19 22/48/22
f 14/12/14 22/48/22 15/13/15
f 18/16/18 28/35/28 19/47/19
f 18/16/18 19/47/19 14/12/14
vt 0.028427 0.833041
f 18/16/18 17/15/17 27/49/27
f 18/16/18 27/49/27 31/36/31
vt 0.715948 0.681797
vt 0.716257 0.681750
f 15/42/15 22/50/22 21/51/21
vt 0.800732 0.743731
f 15/42/15 21/51/21 32/52/32
f 15/42/15 32/52/32 35/43/35
vt 0.894839 0.011980
vt 0.905568 0.012367
vt 0.905645 0.012454
f 36/53/36 37/54/37 38/55/38
vt 0.901424 0.133463
f 36/53/36 38/55/38 39/56/39
vt 0.890615 0.133084
f 36/53/36 39/56/39 40/57/40
vt 0.999483 0.526939
vt 0.999487 0.642568
vt 0.988874 0.641029
f 41/58/41 42/59/42 43/60/43
vt 0.988871 0.519900
f 41/58/41 43/60/43 44/61/44
vt 0.877485 0.019496
vt 0.873462 0.135060
vt 0.862635 0.134683
f 45/62/45 46/63/46 47/64/47
vt 0.866658 0.019119
f 45/62/45 47/64/47 48/65/48
vt 0.990169 0.965580
vt 0.990094 0.965582
vt 0.901683 0.882709
f 49/66/49 36/67/36 40/68/40
vt 0.908077 0.873551
f 49/66/49 40/68/40 46/69/46
vt 0.992442 0.952631
f 49/66/49 46/69/46 45/70/45
vt 0.916778 0.052563
vt 0.914872 0.168185
vt 0.914568 0.168161
f 48/71/48 47/72/47 42/73/42
vt 0.916475 0.052553
f 48/71/48 42/73/42 41/74/41
vt 0.905601 0.012298
f 50/75/50 37/54/37 36/53/36
vt 0.894844 0.011905
f 50/75/50 36/53/36 49/76/49
vt 0.905795 0.012400
f 51/77/51 38/55/38 37/54/37
f 51/77/51 37/54/37 50/75/50
f 39/56/39 38/55/38 51/77/51
vt 0.905941 0.012432
f 39/56/39 51/77/51 44/78/44
vt 0.901719 0.133500
f 39/56/39 44/78/44 43/79/43
vt 0.039033 0.598388
vt 0.039037 0.745844
vt 0.028425 0.746408
f 52/80/52 53/81/53 54/82/54
vt 0.028420 0.606613
f 52/80/52 54/82/54 55/83/55
vt 0.888911 0.034799
vt 0.883765 0.182443
vt 0.872938 0.182066
f 56/84/56 57/85/57 58/86/58
vt 0.878084 0.034421
f 56/84/56 58/86/58 59/87/59
vt 0.981649 0.890184
vt 0.869076 0.807587
vt 0.876088 0.799021
f 60/88/60 61/89/61 62/90/62
vt 0.876089 0.799021
f 60/88/60 62/90/62 57/91/57
vt 0.995200 0.886415
f 60/88/60 57/91/57 56/92/56
vt 0.915781 0.049090
vt 0.911218 0.188583
vt 0.900405 0.188288
f 63/93/63 64/94/64 61/95/61
vt 0.904970 0.048699
f 63/93/63 61/95/61 60/96/60
vt 0.922503 0.039942
vt 0.920058 0.187660
f 59/97/59 58/98/58 65/98/65
vt 0.919753 0.187673
f 59/97/59 65/98/65 53/99/53
vt 0.922196 0.040243
f 59/97/59 53/99/53 52/100/52
vt 0.916084 0.048840
f 64/94/64 63/93/63 55/101/55
vt 0.911514 0.188567
f 64/94/64 55/101/55 54/102/54
# 89 faces, 102 coords texture

# End of File
