####
#
# OBJ File Generated by Meshlab
#
####
# Object wall_roof_1_carcas.obj
#
# Vertices: 60
# Faces: 81
#
####
mtllib ./wall_roof_1_carcas.obj.mtl

vn 0.000174 0.000507 -0.000102
v 0.000004 0.049997 -1.697953
vn -0.000262 0.000293 -0.000079
v -0.023808 0.049997 -1.697953
vn -0.000262 0.000293 0.000079
v -0.023799 0.049998 -0.086602
vn 0.000174 0.000507 0.000102
v 0.000014 0.049998 -0.086602
vn -0.000052 -0.000021 -0.000079
v -0.023807 -0.000003 -1.784556
vn -0.000052 -0.000021 0.000079
v -0.023798 -0.000002 0.000002
vn 0.000226 0.000058 -0.000134
v 0.001005 0.000997 -1.782824
vn 0.000310 0.000280 -0.000134
v 0.001004 0.048997 -1.699685
vn 0.000310 0.000280 0.000134
v 0.001014 0.048998 -0.084870
vn 0.000226 0.000058 0.000134
v 0.001015 0.000998 -0.001730
vn 0.000048 -0.000029 -0.000102
v 0.000005 -0.000003 -1.784556
vn 0.000048 -0.000029 0.000102
v 0.000015 -0.000002 0.000002
vn 0.000175 0.000423 0.000182
v -0.000003 0.443681 -0.868266
vn 0.000196 0.000400 -0.000175
v -0.000003 0.443681 -0.916266
vn -0.000236 0.000268 -0.000111
v -0.023815 0.443681 -0.916266
vn -0.000236 0.000268 0.000111
v -0.023816 0.443681 -0.868266
vn 0.000423 0.000175 0.000182
v 0.000997 0.442681 -0.868266
vn 0.000518 0.000219 -0.000064
v 0.000997 0.442681 -0.915266
vn 0.000196 0.000175 -0.000400
v -0.000003 0.442681 -0.917266
vn -0.000236 0.000111 -0.000268
v -0.023815 0.442681 -0.917266
vn -0.000236 0.000111 0.000268
v -0.023816 0.442681 -0.867266
vn 0.000093 0.000224 0.000498
v -0.000417 0.442681 -0.867266
vn 0.000224 0.000093 0.000498
v -0.000003 0.442267 -0.867266
vn 0.000111 0.000000 0.000268
v -0.000003 0.050049 -0.867251
vn 0.000268 0.000000 0.000111
v 0.000997 0.050050 -0.868251
vn 0.000518 0.000064 -0.000219
v 0.000997 0.441681 -0.916266
vn 0.000268 -0.000000 -0.000111
v 0.000998 0.050082 -0.916252
vn -0.000157 -0.000000 -0.000157
v -0.023815 0.050083 -0.917252
vn 0.000111 -0.000000 -0.000268
v -0.000002 0.050083 -0.917252
vn -0.000157 0.000000 0.000157
v -0.023815 0.050049 -0.867251
vn -0.000236 0.000177 0.000230
v -0.023799 0.049865 -0.084364
vn 0.000093 0.000319 0.000443
v -0.000400 0.049865 -0.084364
vn 0.000224 0.000385 0.000329
v 0.000014 0.050072 -0.084723
vn 0.000084 0.000209 0.000120
v 0.000002 0.515158 -0.892281
vn -0.000105 0.000136 0.000078
v -0.023810 0.515158 -0.892281
vn 0.000310 -0.000042 -0.000024
v 0.001015 0.049535 -0.182010
vn 0.000293 -0.000073 -0.000042
v 0.001003 0.458662 -0.892281
vn 0.000243 0.000120 0.000069
v 0.001002 0.514005 -0.892281
vn 0.000226 0.000151 0.000087
v 0.001014 0.049535 -0.085796
vn -0.000262 -0.000136 -0.000078
v -0.023798 0.049535 -0.184016
vn -0.000209 -0.000136 -0.000078
v -0.023810 0.457509 -0.892281
vn 0.000138 -0.000256 -0.000148
v 0.000002 0.457509 -0.892281
vn 0.000174 -0.000287 -0.000165
v 0.000015 0.049535 -0.184017
vn -0.000131 0.000041 0.000152
v -0.023799 0.049535 -0.084276
vn 0.000084 0.000094 0.000256
v -0.000300 0.049535 -0.084276
vn 0.000184 0.000153 0.000140
v 0.000514 0.049535 -0.084794
vn 0.000226 0.000150 -0.000087
v 0.001000 0.049534 -1.696758
vn 0.000243 0.000120 -0.000069
v 0.000997 0.514004 -0.892281
vn 0.000293 -0.000072 0.000042
v 0.000997 0.458579 -0.892281
vn 0.000310 -0.000042 0.000024
v 0.000999 0.049534 -1.600758
vn -0.000052 0.000136 -0.000079
v -0.023813 0.049534 -1.698758
vn -0.000206 0.000136 -0.000079
v -0.023815 0.515158 -0.892281
vn 0.000142 0.000252 -0.000145
v -0.000003 0.515159 -0.892281
vn 0.000048 0.000178 -0.000103
v -0.000001 0.049534 -1.698758
vn -0.000262 -0.000136 0.000079
v -0.023814 0.049534 -1.598758
vn -0.000209 -0.000136 0.000079
v -0.023816 0.457425 -0.892281
vn -0.000213 -0.000000 -0.000000
v -0.023815 0.515158 -0.892281
vn 0.000174 -0.000286 0.000165
v -0.000001 0.049534 -1.598758
vn 0.000138 -0.000256 0.000148
v -0.000003 0.457425 -0.892281
vn 0.000170 0.000143 -0.000083
v -0.000002 0.515158 -0.892281
# 60 vertices, 0 vertices normals


usemtl material_0
vt 0.062758 0.603137
vt 0.051933 0.602757
f 1/1/1 2/2/2 3/2/3
f 1/1/1 3/2/3 4/1/4
vt 0.152305 0.630965
vt 0.140592 0.649711
f 2/3/2 5/4/5 6/4/6
f 2/3/2 6/4/6 3/3/3
vt 0.112430 0.655374
vt 0.102462 0.636640
f 7/5/7 8/6/8 9/6/9
f 7/5/7 9/6/9 10/5/10
vt 0.090300 0.577593
vt 0.079475 0.577219
f 5/7/5 11/8/11 12/8/12
f 5/7/5 12/8/12 6/7/6
vt 0.102163 0.636245
f 8/6/8 1/9/1 4/9/4
f 8/6/8 4/9/4 9/6/9
vt 0.079176 0.576824
f 11/8/11 7/10/7 10/10/10
f 11/8/11 10/10/10 12/8/12
f 1/1/1 8/6/8 7/5/7
f 1/1/1 7/5/7 11/8/11
f 1/1/1 11/8/11 5/7/5
f 1/1/1 5/7/5 2/3/2
f 3/2/3 6/4/6 12/8/12
f 3/2/3 12/8/12 10/10/10
f 3/2/3 10/10/10 9/6/9
f 3/2/3 9/6/9 4/9/4
vt 0.028431 0.944385
vt 0.039043 0.944380
vt 0.039049 0.955212
f 13/11/13 14/12/14 15/13/15
vt 0.028437 0.955218
f 13/11/13 15/13/15 16/14/16
vt 0.028431 0.944072
vt 0.038822 0.944070
f 13/11/13 17/15/17 18/16/18
f 13/11/13 18/16/18 14/12/14
vt 0.866022 0.380497
vt 0.866033 0.380185
vt 0.876860 0.380562
f 14/17/14 19/18/19 20/19/20
vt 0.876849 0.380874
f 14/17/14 20/19/20 15/20/15
vt 0.893947 0.386303
vt 0.893942 0.385889
vt 0.904676 0.386066
f 16/21/16 21/22/21 22/23/22
vt 0.904799 0.386330
f 16/21/16 22/23/22 13/24/13
vt 0.905051 0.386134
vt 0.904759 0.386018
vt 0.908390 0.275022
f 17/25/17 23/26/23 24/27/24
vt 0.908681 0.275157
f 17/25/17 24/27/24 25/28/25
f 13/24/13 22/23/22 23/26/23
f 13/24/13 23/26/23 17/25/17
vt 0.916278 0.385882
vt 0.916473 0.385645
vt 0.916776 0.385879
f 18/29/18 26/30/26 19/31/19
vt 0.916575 0.386125
f 18/29/18 19/31/19 14/32/14
vt 0.039040 0.839168
vt 0.039043 0.943850
f 27/33/27 26/34/26 18/16/18
f 27/33/27 18/16/18 17/15/17
vt 0.028427 0.833041
f 27/33/27 17/15/17 25/35/25
vt 0.880510 0.275851
f 28/36/28 20/19/20 19/18/19
vt 0.869683 0.275474
f 28/36/28 19/18/19 29/37/29
vt 0.799339 0.756420
vt 0.709717 0.690663
vt 0.709670 0.690354
f 30/38/30 21/39/21 16/40/16
vt 0.715948 0.681797
f 30/38/30 16/40/16 15/41/15
vt 0.716257 0.681750
f 30/38/30 15/41/15 20/42/20
vt 0.800732 0.743731
f 30/38/30 20/42/20 28/43/28
f 24/27/24 23/26/23 22/23/22
f 24/27/24 22/23/22 21/22/21
vt 0.897577 0.274760
f 24/27/24 21/22/21 30/44/30
vt 0.918510 0.281115
f 29/45/29 19/31/19 26/30/26
vt 0.918207 0.280980
f 29/45/29 26/30/26 27/46/27
vt 0.894839 0.011980
vt 0.905568 0.012367
vt 0.905645 0.012454
f 31/47/31 32/48/32 33/49/33
vt 0.901424 0.133463
f 31/47/31 33/49/33 34/50/34
vt 0.890615 0.133084
f 31/47/31 34/50/34 35/51/35
vt 0.999483 0.526939
vt 0.999487 0.642568
vt 0.988874 0.641029
f 36/52/36 37/53/37 38/54/38
vt 0.988871 0.519900
f 36/52/36 38/54/38 39/55/39
vt 0.877485 0.019496
vt 0.873462 0.135060
vt 0.862635 0.134683
f 40/56/40 41/57/41 42/58/42
vt 0.866658 0.019119
f 40/56/40 42/58/42 43/59/43
vt 0.990169 0.965580
vt 0.990094 0.965582
vt 0.901683 0.882709
f 44/60/44 31/61/31 35/62/35
vt 0.908077 0.873551
f 44/60/44 35/62/35 41/63/41
vt 0.992442 0.952631
f 44/60/44 41/63/41 40/64/40
vt 0.916778 0.052563
vt 0.914872 0.168185
vt 0.914568 0.168161
f 43/65/43 42/66/42 37/67/37
vt 0.916475 0.052553
f 43/65/43 37/67/37 36/68/36
vt 0.905601 0.012298
f 45/69/45 32/48/32 31/47/31
vt 0.894844 0.011905
f 45/69/45 31/47/31 44/70/44
vt 0.905795 0.012400
f 46/71/46 33/49/33 32/48/32
f 46/71/46 32/48/32 45/69/45
f 34/50/34 33/49/33 46/71/46
vt 0.905941 0.012432
f 34/50/34 46/71/46 39/72/39
vt 0.901719 0.133500
f 34/50/34 39/72/39 38/73/38
vt 0.039033 0.598388
vt 0.039037 0.745844
vt 0.028425 0.746408
f 47/74/47 48/75/48 49/76/49
vt 0.028420 0.606613
f 47/74/47 49/76/49 50/77/50
vt 0.888911 0.034799
vt 0.883765 0.182443
vt 0.872938 0.182066
f 51/78/51 52/79/52 53/80/53
vt 0.878084 0.034421
f 51/78/51 53/80/53 54/81/54
vt 0.981649 0.890184
vt 0.869076 0.807587
vt 0.876088 0.799021
f 55/82/55 56/83/56 57/84/57
vt 0.876089 0.799021
f 55/82/55 57/84/57 52/85/52
vt 0.995200 0.886415
f 55/82/55 52/85/52 51/86/51
vt 0.915781 0.049090
vt 0.911218 0.188583
vt 0.900405 0.188288
f 58/87/58 59/88/59 56/89/56
vt 0.904970 0.048699
f 58/87/58 56/89/56 55/90/55
vt 0.922503 0.039942
vt 0.920058 0.187660
f 54/91/54 53/92/53 60/92/60
vt 0.919753 0.187673
f 54/91/54 60/92/60 48/93/48
vt 0.922196 0.040243
f 54/91/54 48/93/48 47/94/47
vt 0.916084 0.048840
f 59/88/59 58/87/58 50/95/50
vt 0.911514 0.188567
f 59/88/59 50/95/50 49/96/49
# 81 faces, 96 coords texture

# End of File
