####
#
# OBJ File Generated by Meshlab
#
####
# Object wall_small.obj
#
# Vertices: 146
# Faces: 288
#
####
mtllib ./wall_small.obj.mtl

vn 0.006434 -0.073278 -0.997291
v 2.772926 0.023330 0.049992
vn 0.036628 -0.674973 -0.736933
v 2.772926 0.018104 0.056146
vn -0.120842 -0.730081 -0.672591
v -0.002075 0.018102 0.056148
vn -0.001091 -0.019274 -0.999814
v -0.002075 0.023328 0.049994
vn 0.030919 -0.078662 -0.996422
v 2.772926 0.016459 0.056969
vn 0.002808 -0.871835 -0.489792
v 2.772926 -0.002042 0.058083
vn -0.002574 -0.440132 -0.897930
v -0.002075 -0.002044 0.058085
vn -0.005039 -0.125652 -0.992062
v -0.002075 0.016457 0.056971
vn 0.067621 -0.991075 0.114881
v 2.772926 -0.002042 0.073992
vn -0.040546 -0.998585 0.034404
v -0.002075 -0.002044 0.073994
vn 0.000363 0.060036 0.998196
v 2.771926 -0.001044 0.074930
vn 0.000363 0.051825 0.998656
v 2.771919 0.178178 0.063652
vn -0.000365 0.060038 0.998196
v -0.001075 0.178176 0.063654
vn -0.000356 0.051813 0.998657
v -0.001075 -0.001046 0.074932
vn 0.000435 -0.998720 0.050582
v 2.771919 0.179177 0.064589
vn 0.000328 -0.984702 0.174248
v 2.771919 0.179177 0.073992
vn -0.000397 -0.998722 0.050530
v -0.001081 0.179175 0.073995
vn -0.000389 -0.984672 0.174418
v -0.001076 0.179174 0.064591
vn 0.000363 0.060035 0.998196
v 2.771919 0.180175 0.074930
vn 0.000363 0.051826 0.998656
v 2.771919 0.359413 0.063651
vn -0.000364 0.060038 0.998196
v -0.001073 0.359411 0.063653
vn -0.000358 0.051821 0.998656
v -0.001082 0.180173 0.074932
vn 0.000363 0.060034 0.998196
v 2.771927 0.361409 0.074930
vn 0.000363 0.051825 0.998656
v 2.771921 0.540632 0.063652
vn -0.000364 0.060037 0.998196
v -0.001073 0.540630 0.063654
vn -0.000358 0.051820 0.998656
v -0.001073 0.361407 0.074932
vn 0.000435 -0.998725 0.050484
v 2.771921 0.541630 0.064589
vn 0.000328 -0.984705 0.174232
v 2.771921 0.541630 0.073992
vn -0.000397 -0.998725 0.050482
v -0.001079 0.541628 0.073994
vn -0.000389 -0.984699 0.174266
v -0.001074 0.541628 0.064591
vn 0.000363 0.060034 0.998196
v 2.771921 0.542628 0.074930
vn 0.000363 0.051824 0.998656
v 2.771921 0.721835 0.063653
vn -0.000364 0.060037 0.998196
v -0.001071 0.721833 0.063655
vn -0.000358 0.051813 0.998657
v -0.001080 0.542626 0.074932
vn 0.000363 0.060038 0.998196
v 2.771930 0.723831 0.074930
vn 0.000363 0.051826 0.998656
v 2.771923 0.903069 0.063651
vn -0.000364 0.060038 0.998196
v -0.001071 0.903067 0.063653
vn -0.000358 0.051826 0.998656
v -0.001071 0.723829 0.074932
vn 0.000435 -0.998725 0.050476
v 2.771923 0.904067 0.064588
vn 0.000328 -0.984707 0.174217
v 2.771923 0.904067 0.073992
vn -0.000397 -0.998725 0.050473
v -0.001077 0.904065 0.073994
vn -0.000390 -0.984702 0.174246
v -0.001071 0.904065 0.064590
vn 0.000363 0.060034 0.998196
v 2.771923 0.905065 0.074930
vn 0.000363 0.051825 0.998656
v 2.771923 1.084288 0.063652
vn -0.000364 0.060037 0.998196
v -0.001069 1.084286 0.063654
vn -0.000358 0.051814 0.998657
v -0.001078 0.905063 0.074932
vn 0.000363 0.060035 0.998196
v 2.771931 1.086284 0.074930
vn 0.000363 0.051826 0.998656
v 2.771925 1.265522 0.063651
vn -0.000364 0.060038 0.998196
v -0.001069 1.265520 0.063653
vn -0.000358 0.051821 0.998656
v -0.001069 1.086282 0.074932
vn 0.000435 -0.998723 0.050527
v 2.771925 1.266520 0.064588
vn 0.000329 -0.984692 0.174302
v 2.771925 1.266521 0.073992
vn -0.000397 -0.998723 0.050525
v -0.001075 1.266518 0.073994
vn -0.000390 -0.984701 0.174251
v -0.001070 1.266518 0.064590
vn 0.000363 0.060035 0.998196
v 2.771925 1.267519 0.074930
vn 0.000363 0.051826 0.998656
v 2.771918 1.446741 0.063652
vn -0.000364 0.060037 0.998196
v -0.001076 1.446739 0.063654
vn -0.000358 0.051814 0.998657
v -0.001076 1.267516 0.074932
vn 0.000435 -0.998725 0.050479
v 2.771918 1.447739 0.064589
vn 0.000328 -0.984687 0.174332
v 2.771918 1.447739 0.073993
vn -0.000397 -0.998725 0.050479
v -0.001082 1.447737 0.073995
vn -0.000390 -0.984701 0.174251
v -0.001076 1.447737 0.064591
vn 0.000363 0.060038 0.998196
v 2.771918 1.448738 0.074930
vn 0.000363 0.051827 0.998656
v 2.771918 1.627975 0.063651
vn -0.000364 0.060038 0.998196
v -0.001074 1.627973 0.063653
vn -0.000358 0.051826 0.998656
v -0.001083 1.448735 0.074932
vn 0.000362 0.050500 0.998724
v 2.771927 1.629972 0.074930
vn 0.000213 0.812309 0.583228
v 2.771925 1.664196 0.072705
vn -0.000179 0.079386 0.996844
v -0.001074 1.664203 0.072707
vn -0.000692 0.009661 0.999953
v -0.001074 1.629969 0.074932
vn 0.000182 -0.995372 0.096101
v 2.771926 1.628974 0.073992
vn -0.000755 -0.995379 0.096018
v -0.001074 1.628971 0.073994
vn -0.000214 -0.995371 0.096110
v -0.001074 1.628971 0.064590
vn 0.000827 -0.995370 0.096117
v 2.771919 1.628973 0.064588
vn 0.000181 -0.995375 0.096065
v 2.771931 1.085286 0.073992
vn -0.000756 -0.995378 0.096027
v -0.001069 1.085284 0.073995
vn -0.000214 -0.995375 0.096069
v -0.001069 1.085284 0.064591
vn 0.000827 -0.995378 0.096035
v 2.771924 1.085286 0.064589
vn 0.000181 -0.995375 0.096071
v 2.771929 0.722833 0.073993
vn -0.000756 -0.995378 0.096030
v -0.001071 0.722831 0.073995
vn -0.000214 -0.995375 0.096071
v -0.001071 0.722831 0.064592
vn 0.000826 -0.995378 0.096030
v 2.771921 0.722833 0.064590
vn 0.000181 -0.995376 0.096055
v 2.771927 0.360411 0.073992
vn -0.000756 -0.995379 0.096018
v -0.001073 0.360409 0.073995
vn -0.000214 -0.995376 0.096057
v -0.001073 0.360409 0.064590
vn 0.000826 -0.995379 0.096023
v 2.771919 0.360411 0.064588
vn -0.999882 -0.000862 0.015339
v -0.002075 0.180174 0.062526
vn -0.003658 0.000000 -0.999993
v -0.002075 0.180279 0.049994
vn 0.999423 0.000985 0.033949
v 2.772919 0.180176 0.062524
vn 0.996784 -0.004540 0.080009
v 2.772919 0.180177 0.073928
vn -0.989271 0.004204 0.146030
v -0.002082 0.180175 0.073930
vn 0.999484 0.000907 0.032112
v 2.772919 0.361411 0.062524
vn -0.999867 -0.000922 0.016273
v -0.002073 0.361409 0.062526
vn 0.996836 -0.004557 0.079360
v 2.772928 0.361411 0.073928
vn -0.989199 0.004192 0.146518
v -0.002073 0.361409 0.073930
vn 0.999484 0.000910 0.032094
v 2.772921 0.542629 0.062525
vn -0.999866 -0.000925 0.016316
v -0.002073 0.542627 0.062526
vn 0.996782 -0.004543 0.080034
v 2.772921 0.542630 0.073927
vn -0.989273 0.004203 0.146019
v -0.002080 0.542628 0.073930
vn 0.999486 0.000907 0.032052
v 2.772921 0.723833 0.062526
vn -0.999866 -0.000922 0.016375
v -0.002071 0.723831 0.062527
vn 0.996839 -0.004560 0.079316
v 2.772930 0.723833 0.073928
vn -0.989196 0.004193 0.146540
v -0.002071 0.723831 0.073930
vn 0.999488 0.000910 0.031992
v 2.772923 0.905067 0.062524
vn -0.999866 -0.000923 0.016373
v -0.002071 0.905065 0.062526
vn 0.996784 -0.004541 0.080008
v 2.772923 0.905067 0.073927
vn -0.989273 0.004204 0.146019
v -0.002078 0.905065 0.073929
vn 0.999489 0.000908 0.031940
v 2.772923 1.086286 0.062524
vn -0.999865 -0.000922 0.016423
v -0.002069 1.086284 0.062526
vn 0.996834 -0.004550 0.079380
v 2.772932 1.086286 0.073928
vn -0.989197 0.004192 0.146529
v -0.002069 1.086284 0.073930
vn 0.999490 0.000926 0.031929
v 2.772925 1.267520 0.062524
vn -0.999867 -0.000943 0.016299
v -0.002069 1.267518 0.062526
vn 0.996784 -0.004503 0.080009
v 2.772925 1.267521 0.073927
vn -0.989274 0.004154 0.146012
v -0.002076 1.267518 0.073929
vn 0.999479 0.000927 0.032250
v 2.772918 1.448739 0.062524
vn -0.999872 -0.000940 0.015996
v -0.002076 1.448737 0.062526
vn 0.996784 -0.004540 0.080008
v 2.772918 1.448739 0.073928
vn -0.989271 0.004204 0.146030
v -0.002083 1.448737 0.073930
vn 0.998991 0.001270 0.044893
v 2.772918 1.629973 0.062524
vn -0.999560 -0.001685 0.029611
v -0.002074 1.629971 0.062526
vn 0.996010 -0.043620 0.077860
v 2.772927 1.629974 0.073927
vn -0.996502 -0.023066 0.080320
v -0.002074 1.629971 0.073929
vn 0.996011 0.017579 0.087484
v 2.772926 1.664196 0.071703
vn -0.027361 0.999623 0.002423
v -0.002074 1.664203 0.071705
vn -0.012337 0.999924 -0.000001
v -0.002074 1.664203 0.062526
vn 0.004513 -0.000000 -0.999990
v 2.772928 1.448820 0.049992
vn 0.002842 0.000000 -0.999996
v 2.772928 1.630077 0.049992
vn 0.004516 0.000000 -0.999990
v 2.772927 1.267334 0.049992
vn 0.004509 -0.000000 -0.999990
v 2.772927 1.086483 0.049992
vn 0.004518 0.000000 -0.999990
v 2.772927 0.904888 0.049992
vn 0.004521 -0.000000 -0.999990
v 2.772927 0.723654 0.049992
vn 0.004514 -0.000000 -0.999990
v 2.772927 0.542394 0.049992
vn 0.004513 -0.000000 -0.999990
v 2.772926 0.361383 0.049992
vn 0.004737 0.000000 -0.999989
v 2.772926 0.180386 0.049992
vn -0.004519 0.000000 -0.999990
v -0.002074 0.361757 0.049994
vn -0.004516 0.000000 -0.999990
v -0.002074 0.543115 0.049994
vn -0.004517 0.000000 -0.999990
v -0.002074 0.723679 0.049994
vn -0.004514 0.000000 -0.999990
v -0.002074 0.904617 0.049994
vn -0.004520 0.000000 -0.999990
v -0.002073 1.086566 0.049994
vn -0.004515 0.000000 -0.999990
v -0.002073 1.267652 0.049994
vn -0.004516 -0.000000 -0.999990
v -0.002073 1.449194 0.049994
vn -0.007183 0.000000 -0.999974
v -0.002073 1.630369 0.049994
vn -0.006291 0.721340 -0.692553
v -0.002073 1.664203 0.049994
vn 0.999831 0.018398 0.000348
v 2.772918 1.664196 0.062524
vn 0.002151 0.317062 -0.948403
v 2.772928 1.664196 0.049992
# 146 vertices, 0 vertices normals


usemtl material_0
vt 0.442927 0.672052
vt 0.443352 0.671972
vt 0.637671 0.000872
f 1/1/1 2/2/2 3/3/3
vt 0.637323 0.000747
f 1/1/1 3/3/3 4/4/4
vt 0.444734 0.672199
vt 0.446420 0.673421
vt 0.640689 0.000500
f 5/5/5 6/6/6 7/7/7
vt 0.638931 0.001419
f 5/5/5 7/7/7 8/8/8
vt 0.448625 0.672772
vt 0.642734 0.001700
f 6/6/6 9/9/9 10/10/10
f 6/6/6 10/10/10 7/7/7
vt 0.999500 0.981754
vt 0.954440 0.981752
vt 0.954440 0.285819
f 11/11/11 12/12/12 13/13/13
vt 0.999500 0.285819
f 11/11/11 13/13/13 14/14/14
vt 0.954120 0.981751
vt 0.951800 0.981751
vt 0.951800 0.285817
f 15/15/15 16/16/16 17/17/17
vt 0.954120 0.285818
f 15/15/15 17/17/17 18/18/18
vt 0.951513 0.981751
vt 0.906512 0.981750
vt 0.906511 0.285818
f 19/19/19 20/20/20 21/21/21
vt 0.951512 0.285816
f 19/19/19 21/21/21 22/22/22
vt 0.903756 0.981753
vt 0.858811 0.981751
vt 0.858811 0.285818
f 23/23/23 24/24/24 25/25/25
vt 0.903755 0.285818
f 23/23/23 25/25/25 26/26/26
vt 0.858602 0.981751
vt 0.856386 0.981751
vt 0.856386 0.285817
f 27/27/27 28/28/28 29/29/29
vt 0.858601 0.285818
f 27/27/27 29/29/29 30/30/30
vt 0.856197 0.981752
vt 0.811295 0.981751
vt 0.811294 0.285819
f 31/31/31 32/32/32 33/33/33
vt 0.856197 0.285817
f 31/31/31 33/33/33 34/34/34
vt 0.808771 0.981754
vt 0.763882 0.981751
vt 0.763882 0.285819
f 35/35/35 36/36/36 37/37/37
vt 0.808771 0.285819
f 35/35/35 37/37/37 38/38/38
vt 0.763724 0.981752
vt 0.761550 0.981752
vt 0.761550 0.285817
f 39/39/39 40/40/40 41/41/41
vt 0.763724 0.285819
f 39/39/39 41/41/41 42/42/42
vt 0.761392 0.981752
vt 0.716507 0.981751
vt 0.716507 0.285819
f 43/43/43 44/44/44 45/45/45
vt 0.761392 0.285817
f 43/43/43 45/45/45 46/46/46
vt 0.713982 0.981754
vt 0.669072 0.981752
vt 0.669072 0.285819
f 47/47/47 48/48/48 49/49/49
vt 0.713982 0.285819
f 47/47/47 49/49/49 50/50/50
vt 0.668882 0.981752
vt 0.666666 0.981752
vt 0.666665 0.285818
f 51/51/51 52/52/52 53/53/53
vt 0.668881 0.285819
f 51/51/51 53/53/53 54/54/54
vt 0.666455 0.981753
vt 0.621509 0.981750
vt 0.621509 0.285818
f 55/55/55 56/56/56 57/57/57
vt 0.666455 0.285818
f 55/55/55 57/57/57 58/58/58
vt 0.621276 0.981750
vt 0.619012 0.981751
vt 0.619012 0.285816
f 59/59/59 60/60/60 61/61/61
vt 0.621275 0.285817
f 59/59/59 61/61/61 62/62/62
vt 0.618752 0.981751
vt 0.573749 0.981750
vt 0.573748 0.285818
f 63/63/63 64/64/64 65/65/65
vt 0.618751 0.285816
f 63/63/63 65/65/65 66/66/66
vt 0.570818 0.981753
vt 0.562219 0.981752
vt 0.562216 0.285818
f 67/67/67 68/68/68 69/69/69
vt 0.570818 0.285818
f 67/67/67 69/69/69 70/70/70
vt 0.571138 0.981752
vt 0.571138 0.285818
vt 0.573459 0.285818
f 71/71/71 72/72/72 73/73/73
vt 0.573459 0.981750
f 71/71/71 73/73/73 74/74/74
vt 0.714158 0.981754
vt 0.714158 0.285819
vt 0.716343 0.285819
f 75/75/75 76/76/76 77/77/77
vt 0.716343 0.981752
f 75/75/75 77/77/77 78/78/78
vt 0.808935 0.981753
vt 0.808934 0.285819
vt 0.811119 0.285819
f 79/79/79 80/80/80 81/81/81
vt 0.811120 0.981751
f 79/79/79 81/81/81 82/82/82
vt 0.903989 0.981753
vt 0.903989 0.285818
vt 0.906252 0.285818
f 83/83/83 84/84/84 85/85/85
vt 0.906252 0.981751
f 83/83/83 85/85/85 86/86/86
vt 0.600920 0.018677
vt 0.599141 0.017121
f 3/3/3 87/87/87 88/88/88
f 3/3/3 88/88/88 4/4/4
vt 0.601271 0.018747
vt 0.601386 0.018749
f 13/89/13 18/90/18 87/87/87
vt 0.416892 0.640943
vt 0.417192 0.641113
vt 0.417149 0.640993
f 89/91/89 15/92/15 12/93/12
vt 0.418643 0.643103
vt 0.418784 0.643405
vt 0.418383 0.643321
f 90/94/90 19/95/19 16/96/16
vt 0.603816 0.018593
vt 0.604076 0.018923
vt 0.603743 0.018937
f 17/97/17 22/98/22 91/99/91
vt 0.447398 0.607764
vt 0.447166 0.608230
vt 0.447134 0.608191
f 92/100/92 86/101/86 20/102/20
vt 0.596126 0.063489
vt 0.596301 0.063748
vt 0.595704 0.063958
f 21/103/21 85/104/85 93/105/93
vt 0.446504 0.610436
vt 0.446326 0.610717
vt 0.446158 0.610358
f 94/106/94 23/107/23 83/108/83
vt 0.598651 0.064182
vt 0.598864 0.064519
vt 0.598526 0.064489
f 84/109/84 26/110/26 95/111/95
vt 0.491974 0.613369
vt 0.491431 0.613451
vt 0.491451 0.613402
f 96/112/96 27/113/27 24/114/24
vt 0.591156 0.109123
vt 0.591332 0.109391
vt 0.590734 0.109606
f 25/115/25 30/116/30 97/117/97
vt 0.489234 0.614163
vt 0.488895 0.614190
vt 0.489093 0.613838
f 98/118/98 31/119/31 28/120/28
vt 0.593681 0.109833
vt 0.593893 0.110170
vt 0.593555 0.110140
f 29/121/29 34/122/34 99/123/99
vt 0.510537 0.654507
vt 0.509943 0.654331
vt 0.510057 0.654147
f 100/124/100 82/125/82 32/126/32
vt 0.586098 0.154755
vt 0.586274 0.155024
vt 0.585675 0.155236
f 33/127/33 81/128/81 101/129/101
vt 0.507689 0.654863
vt 0.507347 0.654851
vt 0.507586 0.654535
f 102/130/102 35/131/35 79/132/79
vt 0.588619 0.155488
vt 0.588827 0.155828
vt 0.588490 0.155794
f 80/133/80 38/134/38 103/135/103
vt 0.518263 0.699319
vt 0.517681 0.699075
vt 0.517844 0.698859
f 104/136/104 39/137/39 36/138/36
vt 0.580652 0.200359
vt 0.580825 0.200652
vt 0.580210 0.200823
f 37/139/37 42/140/42 105/141/105
vt 0.515404 0.699573
vt 0.515062 0.699555
vt 0.515310 0.699246
f 106/142/106 43/143/43 40/144/40
vt 0.583124 0.201340
vt 0.583302 0.201700
vt 0.582968 0.201632
f 41/145/41 46/146/46 107/147/107
vt 0.522828 0.744687
vt 0.522250 0.744426
vt 0.522429 0.744199
f 108/148/108 78/149/78 44/150/44
vt 0.571684 0.245471
vt 0.571824 0.245829
vt 0.571180 0.245872
f 45/151/45 77/152/77 109/153/109
vt 0.519970 0.744941
vt 0.519630 0.744925
vt 0.519877 0.744615
f 110/154/110 47/155/47 75/156/75
vt 0.573892 0.247097
vt 0.573961 0.247511
vt 0.573667 0.247331
f 76/157/76 50/158/50 111/159/111
vt 0.526984 0.790133
vt 0.526406 0.789870
vt 0.526588 0.789640
f 112/160/112 51/161/51 48/162/48
vt 0.554228 0.288501
vt 0.553677 0.288935
vt 0.553786 0.288516
f 49/163/49 54/164/54 113/165/113
vt 0.524128 0.790395
vt 0.523787 0.790378
vt 0.524033 0.790068
f 114/166/114 55/167/55 52/168/52
vt 0.551105 0.289429
vt 0.550746 0.289200
vt 0.551065 0.289086
f 53/169/53 58/170/58 115/171/115
vt 0.531447 0.835532
vt 0.530876 0.835256
vt 0.531054 0.835038
f 116/172/116 59/173/59 56/174/56
vt 0.543015 0.244587
vt 0.542759 0.244402
vt 0.543237 0.243974
f 57/175/57 62/176/62 117/177/117
vt 0.528579 0.835667
vt 0.528238 0.835636
vt 0.528499 0.835338
f 118/178/118 63/179/63 60/180/60
vt 0.540412 0.244830
vt 0.540092 0.244594
vt 0.540417 0.244489
f 61/181/61 66/182/66 119/183/119
vt 0.534748 0.880941
vt 0.534144 0.880809
vt 0.534316 0.880497
f 120/184/120 74/185/74 64/186/64
vt 0.535407 0.199554
vt 0.535164 0.199266
vt 0.535731 0.199019
f 65/187/65 73/188/73 121/189/121
vt 0.532207 0.882045
vt 0.532013 0.882327
vt 0.531962 0.881866
f 122/190/122 67/191/67 71/192/71
vt 0.532844 0.198547
vt 0.532812 0.198093
vt 0.533052 0.198320
f 72/193/72 70/194/70 123/195/123
f 2/2/2 5/5/5 8/8/8
f 2/2/2 8/8/8 3/3/3
vt 0.448749 0.672781
vt 0.642805 0.001726
f 9/9/9 11/196/11 14/197/14
f 9/9/9 14/197/14 10/10/10
f 11/196/11 9/9/9 89/91/89
f 11/196/11 89/91/89 12/93/12
f 12/12/12 15/15/15 18/18/18
f 12/12/12 18/18/18 13/13/13
f 13/89/13 87/87/87 10/10/10
f 13/89/13 10/10/10 14/197/14
f 15/92/15 89/91/89 90/94/90
f 15/92/15 90/94/90 16/96/16
f 16/16/16 19/19/19 22/22/22
f 16/16/16 22/22/22 17/17/17
f 17/97/17 91/99/91 87/87/87
f 17/97/17 87/87/87 18/90/18
f 19/95/19 90/94/90 92/100/92
f 19/95/19 92/100/92 20/102/20
f 20/20/20 86/86/86 85/85/85
f 20/20/20 85/85/85 21/21/21
f 21/103/21 93/105/93 91/99/91
f 21/103/21 91/99/91 22/98/22
f 23/107/23 94/106/94 96/112/96
f 23/107/23 96/112/96 24/114/24
f 24/24/24 27/27/27 30/30/30
f 24/24/24 30/30/30 25/25/25
f 25/115/25 97/117/97 95/111/95
f 25/115/25 95/111/95 26/110/26
f 26/26/26 84/84/84 83/83/83
f 26/26/26 83/83/83 23/23/23
f 27/113/27 96/112/96 98/118/98
f 27/113/27 98/118/98 28/120/28
f 28/28/28 31/31/31 34/34/34
f 28/28/28 34/34/34 29/29/29
f 29/121/29 99/123/99 97/117/97
f 29/121/29 97/117/97 30/116/30
f 31/119/31 98/118/98 100/124/100
f 31/119/31 100/124/100 32/126/32
f 32/32/32 82/82/82 81/81/81
f 32/32/32 81/81/81 33/33/33
f 33/127/33 101/129/101 99/123/99
f 33/127/33 99/123/99 34/122/34
f 35/131/35 102/130/102 104/136/104
f 35/131/35 104/136/104 36/138/36
f 36/36/36 39/39/39 42/42/42
f 36/36/36 42/42/42 37/37/37
f 37/139/37 105/141/105 103/135/103
f 37/139/37 103/135/103 38/134/38
f 38/38/38 80/80/80 79/79/79
f 38/38/38 79/79/79 35/35/35
f 39/137/39 104/136/104 106/142/106
f 39/137/39 106/142/106 40/144/40
f 40/40/40 43/43/43 46/46/46
f 40/40/40 46/46/46 41/41/41
f 41/145/41 107/147/107 105/141/105
f 41/145/41 105/141/105 42/140/42
f 43/143/43 106/142/106 108/148/108
f 43/143/43 108/148/108 44/150/44
f 44/44/44 78/78/78 77/77/77
f 44/44/44 77/77/77 45/45/45
f 45/151/45 109/153/109 107/147/107
f 45/151/45 107/147/107 46/146/46
f 47/155/47 110/154/110 112/160/112
f 47/155/47 112/160/112 48/162/48
f 48/48/48 51/51/51 54/54/54
f 48/48/48 54/54/54 49/49/49
f 49/163/49 113/165/113 111/159/111
f 49/163/49 111/159/111 50/158/50
f 50/50/50 76/76/76 75/75/75
f 50/50/50 75/75/75 47/47/47
f 51/161/51 112/160/112 114/166/114
f 51/161/51 114/166/114 52/168/52
f 52/52/52 55/55/55 58/58/58
f 52/52/52 58/58/58 53/53/53
f 53/169/53 115/171/115 113/165/113
f 53/169/53 113/165/113 54/164/54
f 55/167/55 114/166/114 116/172/116
f 55/167/55 116/172/116 56/174/56
f 56/56/56 59/59/59 62/62/62
f 56/56/56 62/62/62 57/57/57
f 57/175/57 117/177/117 115/171/115
f 57/175/57 115/171/115 58/170/58
f 59/173/59 116/172/116 118/178/118
f 59/173/59 118/178/118 60/180/60
f 60/60/60 63/63/63 66/66/66
f 60/60/60 66/66/66 61/61/61
f 61/181/61 119/183/119 117/177/117
f 61/181/61 117/177/117 62/176/62
f 63/179/63 118/178/118 120/184/120
f 63/179/63 120/184/120 64/186/64
f 64/64/64 74/74/74 73/73/73
f 64/64/64 73/73/73 65/65/65
f 65/187/65 121/189/121 119/183/119
f 65/187/65 119/183/119 66/182/66
vt 0.536870 0.889530
f 67/191/67 122/190/122 124/198/124
vt 0.537696 0.889327
f 67/191/67 124/198/124 68/199/68
f 70/70/70 72/72/72 71/71/71
f 70/70/70 71/71/71 67/67/67
f 72/193/72 123/195/123 121/189/121
f 72/193/72 121/189/121 73/188/73
f 74/185/74 120/184/120 122/190/122
f 74/185/74 122/190/122 71/192/71
f 76/157/76 111/159/111 109/153/109
f 76/157/76 109/153/109 77/152/77
f 78/149/78 108/148/108 110/154/110
f 78/149/78 110/154/110 75/156/75
f 80/133/80 103/135/103 101/129/101
f 80/133/80 101/129/101 81/128/81
f 82/125/82 100/124/100 102/130/102
f 82/125/82 102/130/102 79/132/79
f 84/109/84 95/111/95 93/105/93
f 84/109/84 93/105/93 85/104/85
f 86/101/86 92/100/92 94/106/94
f 86/101/86 94/106/94 83/108/83
f 93/105/93 95/111/95 97/117/97
f 87/87/87 91/99/91 93/105/93
f 8/8/8 7/7/7 10/10/10
f 3/3/3 8/8/8 10/10/10
f 3/3/3 10/10/10 87/87/87
f 97/117/97 99/123/99 101/129/101
f 101/129/101 103/135/103 105/141/105
f 105/141/105 107/147/107 109/153/109
f 109/153/109 111/159/111 113/165/113
f 113/165/113 115/171/115 117/177/117
f 117/177/117 119/183/119 121/189/121
vt 0.536866 0.190399
f 121/189/121 123/195/123 125/200/125
vt 0.535593 0.190570
f 121/189/121 125/200/125 126/201/126
f 9/9/9 6/6/6 5/5/5
f 89/91/89 9/9/9 5/5/5
f 89/91/89 5/5/5 2/2/2
f 92/100/92 90/94/90 89/91/89
f 96/112/96 94/106/94 92/100/92
f 100/124/100 98/118/98 96/112/96
f 104/136/104 102/130/102 100/124/100
f 108/148/108 106/142/106 104/136/104
f 112/160/112 110/154/110 108/148/108
f 116/172/116 114/166/114 112/160/112
f 120/184/120 118/178/118 116/172/116
vt 0.534597 0.835302
f 120/184/120 116/172/116 127/202/127
vt 0.537847 0.881014
f 120/184/120 127/202/127 128/203/128
vt 0.530124 0.789790
f 116/172/116 112/160/112 129/204/129
f 116/172/116 129/204/129 127/202/127
vt 0.525975 0.744420
f 112/160/112 108/148/108 130/205/130
f 112/160/112 130/205/130 129/204/129
vt 0.521379 0.698806
f 108/148/108 104/136/104 131/206/131
f 108/148/108 131/206/131 130/205/130
vt 0.513462 0.653447
f 104/136/104 100/124/100 132/207/132
f 104/136/104 132/207/132 131/206/131
vt 0.493381 0.611212
f 100/124/100 96/112/96 133/208/133
f 100/124/100 133/208/133 132/207/132
vt 0.446452 0.605395
f 96/112/96 92/100/92 134/209/134
f 96/112/96 134/209/134 133/208/133
vt 0.415100 0.641033
f 92/100/92 89/91/89 135/210/135
f 92/100/92 135/210/135 134/209/134
f 89/91/89 2/2/2 1/1/1
f 89/91/89 1/1/1 135/210/135
vt 0.592563 0.063563
f 87/87/87 93/105/93 136/211/136
f 87/87/87 136/211/136 88/88/88
vt 0.587583 0.109356
f 93/105/93 97/117/97 137/212/137
f 93/105/93 137/212/137 136/211/136
vt 0.582547 0.154808
f 97/117/97 101/129/101 138/213/138
f 97/117/97 138/213/138 137/212/137
vt 0.577116 0.200174
f 101/129/101 105/141/105 139/214/139
f 101/129/101 139/214/139 138/213/138
vt 0.568152 0.245008
f 105/141/105 109/153/109 140/215/140
f 105/141/105 140/215/140 139/214/139
vt 0.553848 0.287800
f 109/153/109 113/165/113 141/216/141
f 109/153/109 141/216/141 140/215/140
vt 0.546308 0.243214
f 113/165/113 117/177/117 142/217/142
f 113/165/113 142/217/142 141/216/141
vt 0.538769 0.198264
f 117/177/117 121/189/121 143/218/143
f 117/177/117 143/218/143 142/217/142
vt 0.534644 0.190176
f 121/189/121 126/201/126 144/219/144
f 121/189/121 144/219/144 143/218/143
vt 0.403669 0.701282
vt 0.358187 0.701282
vt 0.358291 0.004961
f 128/220/128 127/221/127 142/222/142
vt 0.403752 0.004961
f 128/220/128 142/222/142 143/223/143
vt 0.312648 0.701282
vt 0.312737 0.004961
f 127/221/127 129/224/129 141/225/141
f 127/221/127 141/225/141 142/222/142
vt 0.267269 0.701281
vt 0.267299 0.004961
f 129/224/129 130/226/130 140/227/140
f 129/224/129 140/227/140 141/225/141
vt 0.221703 0.701281
vt 0.221645 0.004960
f 130/226/130 131/228/131 139/229/139
f 130/226/130 139/229/139 140/227/140
vt 0.176227 0.701280
vt 0.176243 0.004960
f 131/228/131 132/230/132 138/231/138
f 131/228/131 138/231/138 139/229/139
vt 0.130746 0.701280
vt 0.130936 0.004960
f 132/230/132 133/232/133 137/233/137
f 132/230/132 137/233/137 138/231/138
vt 0.085326 0.701280
vt 0.085430 0.004959
f 133/232/133 134/234/134 136/235/136
f 133/232/133 136/235/136 137/233/137
vt 0.039909 0.701279
vt 0.039893 0.004959
f 134/234/134 135/236/135 88/237/88
f 134/234/134 88/237/88 136/235/136
vt 0.000500 0.701278
vt 0.000510 0.004958
f 135/236/135 1/238/1 4/239/4
f 135/236/135 4/239/4 88/237/88
f 125/200/125 123/195/123 70/194/70
vt 0.537703 0.190569
f 125/200/125 70/194/70 69/240/69
f 124/198/124 122/190/122 120/184/120
vt 0.535584 0.889317
f 124/198/124 120/184/120 145/241/145
f 145/241/145 120/184/120 128/203/128
vt 0.534675 0.889584
f 145/241/145 128/203/128 146/242/146
vt 0.412230 0.701281
f 146/243/146 128/220/128 143/223/143
vt 0.412241 0.004961
f 146/243/146 143/223/143 144/244/144
f 68/199/68 124/198/124 145/241/145
f 68/199/68 145/241/145 146/242/146
f 68/199/68 146/242/146 144/219/144
f 68/199/68 144/219/144 126/201/126
f 68/199/68 126/201/126 125/200/125
f 68/199/68 125/200/125 69/240/69
# 288 faces, 244 coords texture

# End of File
