{
    "asset" : {
        "generator" : "Khronos glTF Blender I/O v1.8.19",
        "version" : "2.0"
    },
    "extensionsUsed" : [
        "KHR_texture_transform"
    ],
    "extensionsRequired" : [
        "KHR_texture_transform"
    ],
    "scene" : 0,
    "scenes" : [
        {
            "name" : "Scene",
            "nodes" : [
                0
            ]
        }
    ],
    "nodes" : [
        {
            "mesh" : 0,
            "name" : "Wertical Bim027",
            "rotation" : [
                0,
                -1,
                0,
                7.549790126404332e-08
            ],
            "scale" : [
                0.0010000000474974513,
                0.0010000000474974513,
                0.0010000000474974513
            ]
        }
    ],
    "materials" : [
        {
            "doubleSided" : true,
            "name" : "Wood_Material",
            "pbrMetallicRoughness" : {
                "baseColorTexture" : {
                    "extensions" : {
                        "KHR_texture_transform" : {
                            "offset" : [
                                1.000000013909065,
                                4.371139000186241e-08
                            ],
                            "rotation" : -1.5707963705062866
                        }
                    },
                    "index" : 0
                },
                "roughnessFactor" : 0.858578622341156
            }
        },
        {
            "doubleSided" : true,
            "name" : "Material #10708.001",
            "pbrMetallicRoughness" : {
                "baseColorFactor" : [
                    0.019607843831181526,
                    0.019607843831181526,
                    0.019607843831181526,
                    1
                ],
                "roughnessFactor" : 0.8133934140205383
            }
        },
        {
            "doubleSided" : true,
            "name" : "RoofTileMaterial",
            "pbrMetallicRoughness" : {
                "baseColorFactor" : [
                    0.019607843831181526,
                    0.019607843831181526,
                    0.019607843831181526,
                    1
                ],
                "roughnessFactor" : 0.8318207263946533
            }
        }
    ],
    "meshes" : [
        {
            "name" : "Mesh.089",
            "primitives" : [
                {
                    "attributes" : {
                        "POSITION" : 0,
                        "NORMAL" : 1,
                        "TEXCOORD_0" : 2
                    },
                    "indices" : 3,
                    "material" : 0
                },
                {
                    "attributes" : {
                        "POSITION" : 4,
                        "NORMAL" : 5,
                        "TEXCOORD_0" : 6
                    },
                    "indices" : 7,
                    "material" : 1
                },
                {
                    "attributes" : {
                        "POSITION" : 8,
                        "NORMAL" : 9,
                        "TEXCOORD_0" : 10
                    },
                    "indices" : 11,
                    "material" : 2
                }
            ]
        }
    ],
    "textures" : [
        {
            "sampler" : 0,
            "source" : 0
        }
    ],
    "images" : [
        {
            "mimeType" : "image/jpeg",
            "name" : "2da5a4dcbe50",
            "uri" : "wood_texture.jpg"
        }
    ],
    "accessors" : [
        {
            "bufferView" : 0,
            "componentType" : 5126,
            "count" : 13176,
            "max" : [
                -511.784912109375,
                2571.740234375,
                3122.939208984375
            ],
            "min" : [
                -3911.7861328125,
                -29.276123046875,
                -3277.06982421875
            ],
            "type" : "VEC3"
        },
        {
            "bufferView" : 1,
            "componentType" : 5126,
            "count" : 13176,
            "type" : "VEC3"
        },
        {
            "bufferView" : 2,
            "componentType" : 5126,
            "count" : 13176,
            "type" : "VEC2"
        },
        {
            "bufferView" : 3,
            "componentType" : 5123,
            "count" : 13176,
            "type" : "SCALAR"
        },
        {
            "bufferView" : 4,
            "componentType" : 5126,
            "count" : 624,
            "max" : [
                -477.8779296875,
                2573.540771484375,
                3156.8056640625
            ],
            "min" : [
                -3945.699462890625,
                2506.736572265625,
                -3311.015625
            ],
            "type" : "VEC3"
        },
        {
            "bufferView" : 5,
            "componentType" : 5126,
            "count" : 624,
            "type" : "VEC3"
        },
        {
            "bufferView" : 6,
            "componentType" : 5126,
            "count" : 624,
            "type" : "VEC2"
        },
        {
            "bufferView" : 7,
            "componentType" : 5123,
            "count" : 624,
            "type" : "SCALAR"
        },
        {
            "bufferView" : 8,
            "componentType" : 5126,
            "count" : 84,
            "max" : [
                -531.787353515625,
                2536.908447265625,
                3101.937744140625
            ],
            "min" : [
                -3891.790771484375,
                2489.92919921875,
                -3256.062744140625
            ],
            "type" : "VEC3"
        },
        {
            "bufferView" : 9,
            "componentType" : 5126,
            "count" : 84,
            "type" : "VEC3"
        },
        {
            "bufferView" : 10,
            "componentType" : 5126,
            "count" : 84,
            "type" : "VEC2"
        },
        {
            "bufferView" : 11,
            "componentType" : 5123,
            "count" : 84,
            "type" : "SCALAR"
        }
    ],
    "bufferViews" : [
        {
            "buffer" : 0,
            "byteLength" : 158112,
            "byteOffset" : 0
        },
        {
            "buffer" : 0,
            "byteLength" : 158112,
            "byteOffset" : 158112
        },
        {
            "buffer" : 0,
            "byteLength" : 105408,
            "byteOffset" : 316224
        },
        {
            "buffer" : 0,
            "byteLength" : 26352,
            "byteOffset" : 421632
        },
        {
            "buffer" : 0,
            "byteLength" : 7488,
            "byteOffset" : 447984
        },
        {
            "buffer" : 0,
            "byteLength" : 7488,
            "byteOffset" : 455472
        },
        {
            "buffer" : 0,
            "byteLength" : 4992,
            "byteOffset" : 462960
        },
        {
            "buffer" : 0,
            "byteLength" : 1248,
            "byteOffset" : 467952
        },
        {
            "buffer" : 0,
            "byteLength" : 1008,
            "byteOffset" : 469200
        },
        {
            "buffer" : 0,
            "byteLength" : 1008,
            "byteOffset" : 470208
        },
        {
            "buffer" : 0,
            "byteLength" : 672,
            "byteOffset" : 471216
        },
        {
            "buffer" : 0,
            "byteLength" : 168,
            "byteOffset" : 471888
        }
    ],
    "samplers" : [
        {
            "magFilter" : 9729,
            "minFilter" : 9987
        }
    ],
    "buffers" : [
        {
            "byteLength" : 472056,
            "uri" : "scene.bin"
        }
    ]
}
