####
#
# OBJ File Generated by Meshlab
#
####
# Object balk_244mm.obj
#
# Vertices: 104
# Faces: 44
#
####


vn -0.573271 0.313522 0.757010
v -0.022994 1.845447 -0.074536 1.000000 1.000000 1.000000
vn -0.573271 0.313522 0.757010
v -0.022994 1.847154 -0.075243 1.000000 1.000000 1.000000
vn -0.573271 0.313522 0.757010
v -0.023994 1.846033 -0.075536 1.000000 1.000000 1.000000
vn -0.707497 -0.706716 0.000014
v 0.074000 2.200006 0.074480 1.000000 1.000000 1.000000
vn -0.706743 -0.707470 0.000024
v 0.074000 2.200001 -0.073519 1.000000 1.000000 1.000000
vn -0.706748 -0.707466 0.000024
v 0.075000 2.199002 -0.073519 1.000000 1.000000 1.000000
vn -0.707502 -0.706712 0.000014
v 0.075000 2.199005 0.074480 1.000000 1.000000 1.000000
vn -0.707106 -0.707108 0.000019
v -0.074000 0.000004 0.074536 1.000000 1.000000 1.000000
vn -0.707106 -0.707108 0.000019
v -0.075000 0.001004 0.074536 1.000000 1.000000 1.000000
vn -0.707106 -0.707107 0.000019
v -0.075000 0.001000 -0.073464 1.000000 1.000000 1.000000
vn 0.707107 -0.000018 -0.707107
v 0.075000 0.001000 -0.073464 1.000000 1.000000 1.000000
vn 0.707107 -0.000018 -0.707107
v 0.075000 2.199002 -0.073519 1.000000 1.000000 1.000000
vn 0.707107 -0.000018 -0.707107
v 0.074000 2.199002 -0.074519 1.000000 1.000000 1.000000
vn 0.707107 -0.000018 -0.707107
v 0.074000 0.001000 -0.074464 1.000000 1.000000 1.000000
vn 0.707107 0.000018 0.707107
v 0.075000 2.199005 0.074480 1.000000 1.000000 1.000000
vn 0.707107 0.000018 0.707107
v 0.074000 2.199005 0.075480 1.000000 1.000000 1.000000
vn 0.707104 0.000018 0.707109
v 0.074000 0.001004 0.075536 1.000000 1.000000 1.000000
vn 0.707104 0.000018 0.707109
v 0.075000 0.001004 0.074536 1.000000 1.000000 1.000000
vn 0.707107 0.000018 0.707107
v -0.075000 2.199002 -0.073519 1.000000 1.000000 1.000000
vn 0.707107 0.000018 0.707107
v -0.075000 0.001000 -0.073464 1.000000 1.000000 1.000000
vn 0.707107 0.000018 0.707107
v -0.074000 0.001000 -0.074464 1.000000 1.000000 1.000000
vn 0.707107 0.000018 0.707107
v -0.074000 2.199002 -0.074519 1.000000 1.000000 1.000000
vn -0.707107 0.000018 0.707107
v -0.074000 2.199005 0.075480 1.000000 1.000000 1.000000
vn -0.707107 0.000018 0.707107
v -0.075000 2.199005 0.074480 1.000000 1.000000 1.000000
vn -0.707104 0.000018 0.707109
v -0.075000 0.001004 0.074536 1.000000 1.000000 1.000000
vn -0.707104 0.000018 0.707109
v -0.074000 0.001004 0.075536 1.000000 1.000000 1.000000
vn 0.000000 -0.707470 0.706743
v 0.074000 2.200001 -0.073519 1.000000 1.000000 1.000000
vn 0.000000 -0.707470 0.706743
v -0.074000 2.200001 -0.073519 1.000000 1.000000 1.000000
vn 0.000000 -0.707470 0.706743
v -0.074000 2.199002 -0.074519 1.000000 1.000000 1.000000
vn 0.000000 -0.707470 0.706743
v 0.074000 2.199002 -0.074519 1.000000 1.000000 1.000000
vn 0.000000 0.706712 0.707502
v 0.074000 2.199005 0.075480 1.000000 1.000000 1.000000
vn 0.000000 0.706712 0.707502
v 0.074000 2.200006 0.074480 1.000000 1.000000 1.000000
vn 0.000000 0.706712 0.707502
v -0.074000 2.200006 0.074480 1.000000 1.000000 1.000000
vn 0.000000 0.706712 0.707502
v -0.074000 2.199005 0.075480 1.000000 1.000000 1.000000
vn -0.707497 0.706716 -0.000024
v -0.075000 2.199005 0.074480 1.000000 1.000000 1.000000
vn -0.707502 0.706712 -0.000024
v -0.074000 2.200006 0.074480 1.000000 1.000000 1.000000
vn -0.706748 0.707466 -0.000014
v -0.074000 2.200001 -0.073519 1.000000 1.000000 1.000000
vn -0.706743 0.707470 -0.000014
v -0.075000 2.199002 -0.073519 1.000000 1.000000 1.000000
vn 0.000000 -0.707105 0.707109
v -0.074000 0.001004 0.075536 1.000000 1.000000 1.000000
vn 0.000000 -0.707105 0.707109
v -0.074000 0.000004 0.074536 1.000000 1.000000 1.000000
vn 0.000000 -0.707105 0.707109
v 0.074000 0.000004 0.074536 1.000000 1.000000 1.000000
vn 0.000000 -0.707105 0.707109
v 0.074000 0.001004 0.075536 1.000000 1.000000 1.000000
vn -0.707106 0.707107 -0.000019
v 0.074000 -0.000000 -0.073464 1.000000 1.000000 1.000000
vn -0.707106 0.707107 -0.000019
v 0.074000 0.000004 0.074536 1.000000 1.000000 1.000000
vn -0.707106 0.707107 -0.000019
v 0.075000 0.001004 0.074536 1.000000 1.000000 1.000000
vn -0.707106 0.707107 -0.000019
v 0.075000 0.001000 -0.073464 1.000000 1.000000 1.000000
vn 0.000000 0.707107 0.707106
v -0.074000 -0.000000 -0.073464 1.000000 1.000000 1.000000
vn 0.000000 0.707107 0.707106
v 0.074000 -0.000000 -0.073464 1.000000 1.000000 1.000000
vn 0.000000 0.707107 0.707106
v 0.074000 0.001000 -0.074464 1.000000 1.000000 1.000000
vn 0.000000 0.707107 0.707106
v -0.074000 0.001000 -0.074464 1.000000 1.000000 1.000000
vn -0.577565 0.576920 0.577565
v -0.074000 2.199005 0.075480 1.000000 1.000000 1.000000
vn -0.577565 0.576920 0.577565
v -0.074000 2.200006 0.074480 1.000000 1.000000 1.000000
vn -0.577565 0.576920 0.577565
v -0.075000 2.199005 0.074480 1.000000 1.000000 1.000000
vn 0.577348 -0.577350 0.577353
v 0.074000 0.000004 0.074536 1.000000 1.000000 1.000000
vn 0.577348 -0.577350 0.577353
v 0.075000 0.001004 0.074536 1.000000 1.000000 1.000000
vn 0.577348 -0.577350 0.577353
v 0.074000 0.001004 0.075536 1.000000 1.000000 1.000000
vn 0.577565 0.576920 0.577565
v 0.074000 2.200006 0.074480 1.000000 1.000000 1.000000
vn 0.577565 0.576920 0.577565
v 0.074000 2.199005 0.075480 1.000000 1.000000 1.000000
vn 0.577565 0.576920 0.577565
v 0.075000 2.199005 0.074480 1.000000 1.000000 1.000000
vn -0.577152 -0.577746 0.577152
v 0.075000 2.199002 -0.073519 1.000000 1.000000 1.000000
vn -0.577152 -0.577746 0.577152
v 0.074000 2.200001 -0.073519 1.000000 1.000000 1.000000
vn -0.577152 -0.577746 0.577152
v 0.074000 2.199002 -0.074519 1.000000 1.000000 1.000000
vn 0.577152 -0.577746 0.577152
v -0.074000 2.199002 -0.074519 1.000000 1.000000 1.000000
vn 0.577152 -0.577746 0.577152
v -0.074000 2.200001 -0.073519 1.000000 1.000000 1.000000
vn 0.577152 -0.577746 0.577152
v -0.075000 2.199002 -0.073519 1.000000 1.000000 1.000000
vn -0.577350 0.577351 0.577350
v 0.074000 -0.000000 -0.073464 1.000000 1.000000 1.000000
vn -0.577350 0.577351 0.577350
v 0.075000 0.001000 -0.073464 1.000000 1.000000 1.000000
vn -0.577350 0.577351 0.577350
v 0.074000 0.001000 -0.074464 1.000000 1.000000 1.000000
vn -0.577348 -0.577350 0.577353
v -0.074000 0.000004 0.074536 1.000000 1.000000 1.000000
vn -0.577348 -0.577350 0.577353
v -0.074000 0.001004 0.075536 1.000000 1.000000 1.000000
vn -0.577348 -0.577350 0.577353
v -0.075000 0.001004 0.074536 1.000000 1.000000 1.000000
vn 0.577350 0.577351 0.577350
v -0.074000 -0.000000 -0.073464 1.000000 1.000000 1.000000
vn 0.577350 0.577351 0.577350
v -0.074000 0.001000 -0.074464 1.000000 1.000000 1.000000
vn 0.577350 0.577351 0.577350
v -0.075000 0.001000 -0.073464 1.000000 1.000000 1.000000
vn 1.000000 0.000000 0.000000
v 0.075000 0.001000 -0.073464 1.000000 1.000000 1.000000
vn 1.000000 0.000000 0.000000
v 0.075000 0.001004 0.074536 1.000000 1.000000 1.000000
vn 1.000000 0.000000 0.000000
v 0.075000 2.199005 0.074480 1.000000 1.000000 1.000000
vn 1.000000 0.000000 0.000000
v 0.075000 2.199005 0.074480 1.000000 1.000000 1.000000
vn 1.000000 0.000000 0.000000
v 0.075000 2.199002 -0.073519 1.000000 1.000000 1.000000
vn 1.000000 0.000000 0.000000
v 0.075000 0.001000 -0.073464 1.000000 1.000000 1.000000
vn 0.000000 -0.000025 -1.000000
v -0.074000 2.199002 -0.074519 1.000000 1.000000 1.000000
vn 0.000000 -0.000025 -1.000000
v -0.074000 0.001000 -0.074464 1.000000 1.000000 1.000000
vn 0.000000 -0.000025 -1.000000
v 0.074000 0.001000 -0.074464 1.000000 1.000000 1.000000
vn 0.000000 0.000025 1.000000
v 0.074000 2.199005 0.075480 1.000000 1.000000 1.000000
vn 0.000000 0.000025 1.000000
v -0.074000 2.199005 0.075480 1.000000 1.000000 1.000000
vn 0.000000 0.000025 1.000000
v -0.074000 0.001004 0.075536 1.000000 1.000000 1.000000
vn 0.000000 0.000025 1.000000
v 0.074000 0.001004 0.075536 1.000000 1.000000 1.000000
vn -1.000000 0.000000 0.000000
v -0.075000 2.199002 -0.073519 1.000000 1.000000 1.000000
vn -1.000000 0.000000 0.000000
v -0.075000 0.001000 -0.073464 1.000000 1.000000 1.000000
vn -1.000000 0.000000 0.000000
v -0.075000 0.001004 0.074536 1.000000 1.000000 1.000000
vn -1.000000 0.000000 0.000000
v -0.075000 0.001004 0.074536 1.000000 1.000000 1.000000
vn -1.000000 0.000000 0.000000
v -0.075000 2.199005 0.074480 1.000000 1.000000 1.000000
vn -1.000000 0.000000 0.000000
v -0.075000 2.199002 -0.073519 1.000000 1.000000 1.000000
vn 0.000000 1.000000 -0.000034
v 0.074000 2.200001 -0.073519 1.000000 1.000000 1.000000
vn 0.000000 1.000000 -0.000034
v -0.074000 2.200001 -0.073519 1.000000 1.000000 1.000000
vn 0.000000 1.000000 -0.000034
v -0.074000 2.200006 0.074480 1.000000 1.000000 1.000000
vn 0.000000 1.000000 -0.000034
v 0.074000 2.200006 0.074480 1.000000 1.000000 1.000000
vn 0.000000 -1.000000 0.000027
v -0.074000 0.000004 0.074536 1.000000 1.000000 1.000000
vn 0.000000 -1.000000 0.000027
v -0.074000 -0.000000 -0.073464 1.000000 1.000000 1.000000
vn 0.000000 -1.000000 0.000027
v 0.074000 -0.000000 -0.073464 1.000000 1.000000 1.000000
vn 0.000000 -1.000000 0.000027
v 0.074000 -0.000000 -0.073464 1.000000 1.000000 1.000000
vn 0.000000 -1.000000 0.000027
v 0.074000 0.000004 0.074536 1.000000 1.000000 1.000000
vn 0.000000 -1.000000 0.000027
v -0.074000 0.000004 0.074536 1.000000 1.000000 1.000000
vn 0.000000 -0.000025 -1.000000
v 0.074000 2.199002 -0.074519 1.000000 1.000000 1.000000
# 104 vertices, 0 vertices normals



vt 0.836442 0.220953
vt 0.839160 0.219598
vt 0.847283 0.242699
f 1/1/1 2/2/2 3/3/3
vt 0.408243 0.070703
vt 0.341720 0.068295
vt 0.341443 0.069483
f 4/4/4 5/5/5 6/6/6
vt 0.408440 0.071950
f 6/6/6 7/7/7 4/4/4
vt 0.479204 0.001761
vt 0.480435 0.001511
vt 0.482456 0.068507
f 8/8/8 9/9/9 10/10/10
vt 0.086238 0.998831
vt 0.085124 0.000698
vt 0.103653 0.999104
f 12/11/12 11/12/11 13/13/13
vt 0.102539 0.000971
f 14/14/14 13/13/13 11/12/11
vt 0.019030 0.998906
vt 0.001615 0.998633
vt 0.000500 0.000500
f 15/15/15 16/16/16 17/17/17
vt 0.017915 0.000773
f 17/17/17 18/18/18 15/15/15
vt 0.188276 0.999302
vt 0.187162 0.001170
vt 0.169747 0.000896
f 19/19/19 20/20/20 21/21/21
vt 0.170861 0.999029
f 21/21/21 22/22/22 19/19/19
vt 0.272899 0.999500
vt 0.255484 0.999227
vt 0.254370 0.001095
f 23/23/23 24/24/24 25/25/25
vt 0.271786 0.001368
f 25/25/25 26/26/26 23/23/23
vt 0.342059 0.001747
vt 0.340864 0.001476
f 27/5/27 28/27/28 29/28/29
vt 0.340481 0.068501
f 29/28/29 30/29/30 27/5/27
vt 0.409438 0.070974
vt 0.408582 0.004155
f 31/30/31 32/4/32 33/31/33
vt 0.409821 0.003949
f 33/31/33 34/32/34 31/30/31
vt 0.408859 0.002967
f 35/33/35 36/31/36 37/27/37
vt 0.341861 0.000500
f 37/27/37 38/34/38 35/33/35
vt 0.479439 0.000563
vt 0.412638 0.001739
f 39/35/39 40/8/40 41/36/41
vt 0.412396 0.000500
f 41/36/41 42/37/42 39/35/39
vt 0.414685 0.068256
vt 0.411434 0.001511
f 43/38/43 44/36/44 45/39/45
vt 0.413454 0.068507
f 45/39/45 46/40/46 43/38/43
vt 0.481252 0.068279
vt 0.414451 0.069454
f 47/41/47 48/38/48 49/42/49
vt 0.481494 0.069517
f 49/42/49 50/43/50 47/41/47
f 51/32/51 52/31/52 53/33/53
f 54/36/54 55/39/55 56/37/56
f 57/4/57 58/30/58 59/7/59
f 60/6/60 61/5/61 62/29/62
f 63/28/63 64/27/64 65/34/65
f 66/38/66 67/40/67 68/42/68
f 69/8/69 70/35/70 71/9/71
f 72/41/72 73/43/73 74/10/74
f 76/18/76 75/12/75 77/15/77
f 79/11/79 78/15/78 80/12/80
f 82/21/82 81/22/81 83/14/83
vt 0.340107 0.999425
f 84/44/84 85/23/85 86/26/86
vt 0.338994 0.001293
f 86/26/86 87/45/87 84/44/84
f 88/19/88 89/20/89 90/25/90
f 91/25/91 92/24/92 93/19/93
f 94/5/94 95/27/95 96/31/96
f 96/31/96 97/4/97 94/5/94
f 98/8/98 99/41/99 100/38/100
f 101/38/101 102/36/102 103/8/103
f 104/13/104 83/14/83 81/22/81
# 44 faces, 45 coords texture

# End of File
