####
#
# OBJ File Generated by Meshlab
#
####
# Object 2.obj
#
# Vertices: 72
# Faces: 136
#
####
mtllib ./2.obj.mtl

vn 1.836232 3.668386 -3.487244
v 0.114260 0.761990 -1.949160
vn -1.836530 3.668475 -3.487151
v -0.114680 0.761990 -1.949150
vn -1.674654 5.009485 -1.515790
v -0.114680 1.621560 -0.460340
vn 1.674536 5.009601 -1.515724
v 0.114260 1.621560 -0.460340
vn -4.598848 1.303409 -2.265363
v -0.115680 0.760910 -1.949010
vn -4.418998 -1.622961 -0.932121
v -0.115680 0.743220 -1.949010
vn -5.880432 -1.443051 -0.001473
v -0.115680 1.603060 -0.459470
vn -4.267009 2.762769 0.002653
v -0.115680 1.621060 -0.459470
vn -1.708505 -4.103908 -0.034527
v -0.114680 0.741990 -1.949150
vn 1.708464 -4.103813 -0.034584
v 0.114260 0.741990 -1.949160
vn 2.515534 -5.139091 1.700931
v 0.114260 1.601560 -0.460340
vn -2.515381 -5.139181 1.701154
v -0.114680 1.601560 -0.460340
vn 4.418926 -1.622987 -0.931977
v 0.115260 0.743220 -1.949020
vn 4.598929 1.303406 -2.265439
v 0.115260 0.760910 -1.949020
vn 4.266824 2.762296 0.003333
v 0.115260 1.621060 -0.459470
vn 5.880278 -1.442709 -0.000215
v 0.115260 1.603060 -0.459470
vn 1.711157 -4.109363 0.027557
v 0.113730 0.211450 1.949170
vn -1.711251 -4.109104 0.027327
v -0.115210 0.211450 1.949170
vn -2.521412 -5.135291 -1.697682
v -0.114680 1.601560 -0.458610
vn 2.522036 -5.134972 -1.696902
v 0.114260 1.601560 -0.458610
vn -4.410591 -1.618322 0.939798
v -0.116210 0.212680 1.949030
vn -4.589611 1.299555 2.272151
v -0.116210 0.230370 1.949030
vn -1.832643 3.657900 3.492255
v -0.115210 0.231450 1.949170
vn 1.832338 3.657800 3.492701
v 0.113730 0.231450 1.949170
vn 1.669932 5.014272 1.515867
v 0.114260 1.621560 -0.458610
vn -1.669488 5.014776 1.515519
v -0.114680 1.621560 -0.458610
vn 4.589735 1.299636 2.273467
v 0.114730 0.230370 1.949030
vn 4.411008 -1.618589 0.940818
v 0.114730 0.212680 1.949030
vn 1.709151 -2.081601 3.543115
v 0.113730 0.211940 1.950020
vn 1.829561 1.166572 4.952044
v 0.113730 0.229950 1.950020
vn -1.829562 1.166573 4.952045
v -0.115210 0.229950 1.950020
vn -1.709151 -2.081602 3.543117
v -0.115210 0.211940 1.950020
vn 1.835559 1.174622 -4.934521
v 0.114260 0.760490 -1.950020
vn 1.713206 -2.074374 -3.550715
v 0.114260 0.742490 -1.950020
vn -1.713408 -2.074439 -3.550758
v -0.114680 0.742490 -1.950010
vn -1.835809 1.174651 -4.934576
v -0.114680 0.760490 -1.950010
vn 4.418845 -1.622955 -0.932006
v 0.134740 0.532280 -1.949020
vn 4.598920 1.303404 -2.265458
v 0.134740 0.760910 -1.949020
vn 4.266901 2.762304 -0.002651
v 0.134750 1.621060 -0.459480
vn 5.880282 -1.442692 0.001529
v 0.134750 1.392120 -0.459480
vn 1.836421 3.668510 -3.487319
v 0.133740 0.761990 -1.949160
vn -1.836450 3.668444 -3.487138
v 0.115740 0.761990 -1.949160
vn -1.669742 5.014424 -1.515744
v 0.115750 1.621560 -0.460340
vn 1.669713 5.014464 -1.515649
v 0.133750 1.621560 -0.460340
vn -4.598952 1.303509 -2.265398
v 0.114740 0.760910 -1.949020
vn -4.418987 -1.622965 -0.932089
v 0.114740 0.532280 -1.949020
vn -5.880432 -1.443055 0.000276
v 0.114750 1.392120 -0.459480
vn -4.266837 2.762628 -0.003422
v 0.114750 1.621060 -0.459480
vn -1.708488 -4.103942 -0.034490
v 0.115740 0.531050 -1.949160
vn 1.708487 -4.103920 -0.034448
v 0.133740 0.531050 -1.949160
vn 2.521871 -5.135045 1.697152
v 0.133750 1.390620 -0.460340
vn -2.521608 -5.135139 1.697378
v 0.115750 1.390620 -0.460340
vn -4.412534 -1.617867 0.945114
v 0.114200 0.001740 1.949030
vn -4.582249 1.305162 2.273540
v 0.114200 0.230370 1.949030
vn -1.830483 3.674896 3.490211
v 0.115200 0.231450 1.949160
vn 1.830039 3.674905 3.490747
v 0.133200 0.231450 1.949160
vn 1.674827 5.009346 1.515923
v 0.133750 1.621560 -0.458610
vn -1.674390 5.009863 1.515558
v 0.115750 1.621560 -0.458610
vn 4.582205 1.305222 2.274903
v 0.134200 0.230370 1.949030
vn 4.412971 -1.618129 0.946190
v 0.134200 0.001740 1.949030
vn 1.708261 -4.104335 0.032622
v 0.133200 0.000510 1.949160
vn -1.708352 -4.104068 0.032374
v 0.115200 0.000510 1.949160
vn -2.515194 -5.139326 -1.701465
v 0.115750 1.390620 -0.458610
vn 2.515782 -5.139054 -1.700694
v 0.133750 1.390620 -0.458610
vn -1.709447 -2.078764 3.555630
v 0.115200 0.001010 1.950020
vn 1.709447 -2.078768 3.555641
v 0.133200 0.001010 1.950020
vn 1.825655 1.176563 4.945499
v 0.133200 0.229950 1.950020
vn -1.825662 1.176561 4.945490
v 0.115200 0.229950 1.950020
vn 1.713274 -2.074456 -3.550594
v 0.133740 0.531550 -1.950020
vn -1.713281 -2.074457 -3.550600
v 0.115740 0.531550 -1.950020
vn -1.835680 1.174640 -4.934556
v 0.115740 0.760490 -1.950020
vn 1.835681 1.174639 -4.934556
v 0.133740 0.760490 -1.950020
# 72 vertices, 0 vertices normals


usemtl material_0
vt 0.916970 0.522130
vt 0.930820 0.981940
vt 0.992050 0.980100
f 2/1/2 3/2/3 4/3/4
vt 0.978200 0.520290
f 2/1/2 4/3/4 1/4/1
vt 0.005260 0.944260
vt 0.465480 0.944280
vt 0.467890 0.940120
f 6/5/6 7/6/7 8/7/8
vt 0.007620 0.940150
f 6/5/6 8/7/8 5/8/5
vt 0.998340 0.505850
vt 0.982750 0.046090
vt 0.921530 0.048170
f 10/9/10 11/10/11 12/11/12
vt 0.937110 0.507920
f 10/9/10 12/11/12 9/12/9
vt 0.367830 0.766440
vt 0.828090 0.766460
vt 0.825680 0.762300
f 14/13/14 15/14/15 16/15/16
vt 0.365460 0.762330
f 14/13/14 16/15/16 13/16/13
vt 0.492730 0.005060
vt 0.470130 0.748670
vt 0.531360 0.750550
f 18/17/18 19/18/19 20/19/20
vt 0.553960 0.006930
f 18/17/18 20/19/20 17/20/17
vt 0.749260 0.824420
vt 0.005060 0.821570
vt 0.007450 0.825750
f 22/21/22 8/22/8 7/23/7
vt 0.751610 0.828520
f 22/21/22 7/23/7 21/24/21
vt 0.430220 0.005060
vt 0.388060 0.747820
vt 0.449220 0.751280
f 24/25/24 25/26/25 26/27/26
vt 0.491390 0.008520
f 24/25/24 26/27/26 23/28/23
vt 0.751640 0.806130
vt 0.007480 0.803330
vt 0.005060 0.807490
f 28/29/28 16/30/16 15/31/15
vt 0.749260 0.810220
f 28/29/28 15/31/15 27/32/27
vt 0.846580 0.912770
vt 0.839900 0.973660
vt 0.844670 0.974170
f 30/33/30 31/34/31 32/35/32
vt 0.851340 0.913300
f 30/33/30 32/35/32 29/36/29
vt 0.880720 0.566260
vt 0.880720 0.627490
vt 0.885510 0.627500
f 34/37/34 35/38/35 36/39/36
vt 0.885510 0.566250
f 34/37/34 36/39/36 33/40/33
vt 0.588680 0.032720
vt 0.589140 0.032720
vt 0.588910 0.032420
f 4/41/4 25/42/25 15/43/15
vt 0.999040 0.010100
vt 0.999500 0.010100
vt 0.999270 0.009620
f 20/44/20 11/45/11 16/46/16
vt 0.579560 0.032420
vt 0.579790 0.032720
vt 0.580020 0.032420
f 3/47/3 8/48/8 26/49/26
vt 0.994480 0.178320
vt 0.994710 0.178800
vt 0.994940 0.178320
f 19/50/19 7/51/7 12/52/12
vt 0.885650 0.565900
vt 0.885960 0.566210
f 14/53/14 33/40/33 1/54/1
vt 0.885960 0.627540
vt 0.885650 0.627860
f 2/55/2 36/39/36 5/56/5
vt 0.880860 0.627870
vt 0.880490 0.627550
f 6/57/6 35/38/35 9/58/9
vt 0.880490 0.566200
vt 0.880860 0.565880
f 10/59/10 34/37/34 13/60/13
vt 0.851240 0.912910
vt 0.851580 0.913270
f 28/61/28 29/36/29 17/62/17
vt 0.844890 0.974260
vt 0.844480 0.974530
f 18/63/18 32/35/32 21/64/21
vt 0.839720 0.973990
vt 0.839450 0.973650
f 22/65/22 31/34/31 23/66/23
vt 0.846140 0.912690
vt 0.846480 0.912410
f 24/67/24 30/33/30 27/68/27
vt 0.005190 0.807840
f 27/32/27 15/31/15 25/69/25
vt 0.749140 0.810600
f 27/32/27 25/69/25 24/70/24
vt 0.749150 0.824040
f 8/22/8 22/21/22 23/71/23
vt 0.005200 0.821210
f 8/22/8 23/71/23 26/72/26
vt 0.880490 0.693550
vt 0.880490 0.754810
vt 0.880950 0.754810
f 4/73/4 3/74/3 26/75/26
vt 0.880950 0.693550
f 4/73/4 26/75/26 25/76/25
vt 0.007850 0.826100
f 21/24/21 7/23/7 19/77/19
vt 0.751800 0.828900
f 21/24/21 19/77/19 18/78/18
vt 0.751840 0.805750
f 16/30/16 28/29/28 17/79/17
vt 0.007890 0.802980
f 16/30/16 17/79/17 20/80/20
vt 0.880950 0.690980
vt 0.880950 0.629720
vt 0.880490 0.629720
f 12/81/12 11/82/11 20/83/20
vt 0.880490 0.690980
f 12/81/12 20/83/20 19/84/19
vt 0.467750 0.939770
f 5/8/5 8/7/8 3/85/3
vt 0.007730 0.939760
f 5/8/5 3/85/3 2/86/2
vt 0.825280 0.761960
f 13/16/13 16/15/16 11/87/11
vt 0.365260 0.761940
f 13/16/13 11/87/11 10/88/10
vt 0.367940 0.766820
f 15/14/15 14/13/14 1/89/1
vt 0.827960 0.766810
f 15/14/15 1/89/1 4/90/4
vt 0.005060 0.944640
f 7/6/7 6/5/6 9/91/9
vt 0.465080 0.944630
f 7/6/7 9/91/9 12/92/12
f 33/40/33 36/39/36 2/55/2
f 33/40/33 2/55/2 1/54/1
f 36/39/36 35/38/35 6/57/6
f 36/39/36 6/57/6 5/56/5
f 35/38/35 34/37/34 10/59/10
f 35/38/35 10/59/10 9/58/9
f 34/37/34 33/40/33 14/53/14
f 34/37/34 14/53/14 13/60/13
f 29/36/29 32/35/32 18/63/18
f 29/36/29 18/63/18 17/62/17
f 32/35/32 31/34/31 22/65/22
f 32/35/32 22/65/22 21/64/21
f 31/34/31 30/33/30 24/67/24
f 31/34/31 24/67/24 23/66/23
f 30/33/30 29/36/29 28/61/28
f 30/33/30 28/61/28 27/68/27
vt 0.656040 0.556380
vt 0.666780 0.096250
vt 0.613030 0.125640
f 38/93/38 39/94/39 40/95/40
vt 0.602360 0.585730
f 38/93/38 40/95/40 37/96/37
vt 0.005170 0.981420
vt 0.465180 0.981420
vt 0.465180 0.976600
f 42/97/42 43/98/43 44/99/44
vt 0.005170 0.976610
f 42/97/42 44/99/44 41/100/41
vt 0.590200 0.584300
vt 0.609190 0.124480
vt 0.557450 0.091690
f 46/101/46 47/102/47 48/103/48
vt 0.538520 0.551560
f 46/101/46 48/103/48 45/104/45
vt 0.005060 0.972310
vt 0.465070 0.972320
vt 0.465070 0.967490
f 50/105/50 51/106/51 52/107/52
vt 0.005060 0.967500
f 50/105/50 52/107/52 49/108/49
vt 0.117600 0.749220
vt 0.124550 0.005060
vt 0.071220 0.035200
f 54/109/54 48/110/48 47/111/47
vt 0.064330 0.779310
f 54/109/54 47/111/47 53/112/53
vt 0.749150 0.897390
vt 0.005210 0.894520
vt 0.005200 0.899340
f 56/113/56 57/114/57 58/115/58
vt 0.749130 0.902210
f 56/113/56 58/115/58 55/116/55
vt 0.004220 0.005060
vt 0.000500 0.749200
vt 0.053400 0.780090
f 60/117/60 40/118/40 39/119/39
vt 0.057050 0.035910
f 60/117/60 39/119/39 59/120/59
vt 0.749420 0.888280
vt 0.005480 0.885400
vt 0.005460 0.890220
f 62/121/62 63/122/63 64/123/64
vt 0.749400 0.893090
f 62/121/62 64/123/64 61/124/61
vt 0.997180 0.153030
vt 0.990490 0.092140
vt 0.985720 0.092670
f 66/125/66 67/126/67 68/127/68
vt 0.992390 0.153550
f 66/125/66 68/127/68 65/128/65
vt 0.916970 0.014810
vt 0.978180 0.016780
vt 0.978340 0.011980
f 70/129/70 71/130/71 72/131/72
vt 0.917120 0.009990
f 70/129/70 72/131/72 69/132/69
vt 0.994940 0.260880
vt 0.994710 0.260390
vt 0.994480 0.260880
f 51/133/51 40/134/40 64/135/64
vt 0.916970 0.515730
vt 0.917200 0.516210
vt 0.917430 0.515730
f 63/136/63 47/137/47 52/138/52
vt 0.593240 0.032720
vt 0.593700 0.032720
vt 0.593470 0.032420
f 44/139/44 57/140/57 39/141/39
vt 0.584580 0.032420
vt 0.584120 0.032420
vt 0.584350 0.032720
f 58/142/58 43/143/43 48/144/48
vt 0.994480 0.274500
vt 0.994740 0.274440
vt 0.994530 0.274070
f 50/145/50 69/146/69 37/147/37
vt 0.978500 0.011640
vt 0.978790 0.011960
f 38/148/38 72/131/72 41/149/41
vt 0.978630 0.016820
vt 0.978320 0.017130
f 42/150/42 71/130/71 45/151/45
vt 0.995660 0.279580
vt 0.995710 0.279160
vt 0.995450 0.279210
f 46/152/46 70/153/70 49/154/49
vt 0.990340 0.165820
vt 0.990290 0.165560
vt 0.989920 0.165770
f 62/155/62 65/156/65 53/157/53
vt 0.985360 0.092560
vt 0.985640 0.092220
f 54/158/54 68/127/68 55/159/55
vt 0.990470 0.091690
vt 0.990820 0.091960
f 56/160/56 67/126/67 59/161/59
vt 0.995440 0.164700
vt 0.995020 0.164640
vt 0.995070 0.164910
f 60/162/60 66/163/66 61/164/61
vt 0.005060 0.890570
f 61/124/61 64/123/64 40/165/40
vt 0.749200 0.893470
f 61/124/61 40/165/40 60/166/60
vt 0.749270 0.897010
f 57/114/57 56/113/56 59/167/59
vt 0.005080 0.894170
f 57/114/57 59/167/59 39/168/39
vt 0.005060 0.899690
f 55/116/55 58/115/58 48/169/48
vt 0.749240 0.902590
f 55/116/55 48/169/48 54/170/54
vt 0.749230 0.887900
f 63/122/63 62/121/62 53/171/53
vt 0.005080 0.885050
f 63/122/63 53/171/53 47/172/47
vt 0.465320 0.976240
f 41/100/41 44/99/44 39/173/39
vt 0.005060 0.976240
f 41/100/41 39/173/39 38/174/38
vt 0.465470 0.967140
f 49/108/49 52/107/52 47/175/47
vt 0.005260 0.967120
f 49/108/49 47/175/47 46/176/46
vt 0.994940 0.219610
vt 0.994940 0.214800
vt 0.994480 0.214800
f 58/177/58 57/178/57 44/179/44
vt 0.994480 0.219610
f 58/177/58 44/179/44 43/180/43
vt 0.994940 0.201380
vt 0.994940 0.196560
vt 0.994480 0.196560
f 52/181/52 51/182/51 64/183/64
vt 0.994480 0.201380
f 52/181/52 64/183/64 63/184/63
vt 0.005260 0.972680
f 51/106/51 50/105/50 37/185/37
vt 0.465470 0.972670
f 51/106/51 37/185/37 40/186/40
vt 0.005060 0.981800
f 43/98/43 42/97/42 45/187/45
vt 0.465320 0.981780
f 43/98/43 45/187/45 48/188/48
f 69/132/69 72/131/72 38/148/38
vt 0.917330 0.009620
f 69/132/69 38/148/38 37/189/37
f 72/131/72 71/130/71 42/150/42
f 72/131/72 42/150/42 41/149/41
vt 0.917150 0.015190
f 71/130/71 70/129/70 46/190/46
f 71/130/71 46/190/46 45/151/45
f 70/153/70 69/146/69 50/145/50
f 70/153/70 50/145/50 49/154/49
f 65/128/65 68/127/68 54/158/54
vt 0.991990 0.153390
f 65/128/65 54/158/54 53/191/53
f 68/127/68 67/126/67 56/160/56
f 68/127/68 56/160/56 55/159/55
vt 0.997530 0.152790
f 67/126/67 66/125/66 60/192/60
f 67/126/67 60/192/60 59/161/59
f 66/163/66 65/156/65 62/155/62
f 66/163/66 62/155/62 61/164/61
# 136 faces, 192 coords texture

# End of File
