####
#
# OBJ File Generated by Meshlab
#
####
# Object 5_small.obj
#
# Vertices: 71
# Faces: 136
#
####
mtllib ./5_small.obj.mtl

vn -1.849673 3.671565 -3.474600
v -0.115210 0.696980 -2.699130
vn -1.674689 5.009629 -1.515816
v -0.115210 1.989550 -0.460320
vn 1.674527 5.009631 -1.515713
v 0.113730 1.989550 -0.460320
vn 1.836331 3.668361 -3.487199
v 0.113740 0.696980 -2.699140
vn -4.449959 -1.620456 -0.919452
v -0.116200 0.678210 -2.698990
vn -5.880357 -1.442872 -0.000869
v -0.116210 1.971050 -0.459450
vn -4.266841 2.762496 0.002924
v -0.116210 1.989050 -0.459450
vn -4.623636 1.303759 -2.251741
v -0.116200 0.695900 -2.698990
vn 1.708542 -4.103906 -0.034523
v 0.113740 0.676980 -2.699140
vn 2.515497 -5.139087 1.700972
v 0.113730 1.969550 -0.460320
vn -2.515388 -5.139189 1.701135
v -0.115210 1.969550 -0.460320
vn -1.717840 -4.101858 -0.024626
v -0.115210 0.676980 -2.699130
vn 4.599199 1.303461 -2.265228
v 0.114740 0.695900 -2.699000
vn -0.000008 5.525002 0.005958
v 0.114730 1.989050 -0.459450
vn 5.880146 -1.442673 -0.000766
v 0.114730 1.971050 -0.459450
vn 4.419048 -1.623081 -0.931657
v 0.114740 0.678210 -2.699000
vn -1.708487 -4.103856 0.034555
v -0.115190 0.146440 2.699140
vn -2.521464 -5.134846 -1.697110
v -0.115210 1.969550 -0.458590
vn 2.521659 -5.135101 -1.697350
v 0.113730 1.969550 -0.458590
vn 1.708291 -4.103593 0.034728
v 0.113750 0.146440 2.699140
vn -4.599281 1.303412 2.265221
v -0.116190 0.165360 2.699000
vn -4.418827 -1.622870 0.931806
v -0.116190 0.147670 2.699000
vn 1.836563 3.668336 3.487081
v 0.113750 0.166440 2.699140
vn 1.669433 5.014222 1.515550
v 0.113730 1.989550 -0.458590
vn -1.669655 5.014521 1.515672
v -0.115210 1.989550 -0.458590
vn -1.836302 3.668090 3.487019
v -0.115190 0.166440 2.699140
vn 4.419166 -1.623020 0.931741
v 0.114750 0.147670 2.699000
vn 4.599346 1.303531 2.265208
v 0.114750 0.165360 2.699000
vn 1.835917 1.174596 4.934289
v 0.113750 0.164940 2.700000
vn -1.835910 1.174596 4.934295
v -0.115190 0.164940 2.700000
vn -1.713384 -2.074331 3.550553
v -0.115190 0.146940 2.700000
vn 1.713388 -2.074322 3.550545
v 0.113750 0.146940 2.700000
vn 1.713371 -2.074353 -3.550482
v 0.113740 0.677480 -2.700000
vn -1.718881 -2.070100 -3.526476
v -0.115210 0.677480 -2.700000
vn -1.850940 1.179983 -4.906981
v -0.115210 0.695480 -2.700000
vn 1.835850 1.174613 -4.934282
v 0.113740 0.695480 -2.700000
vn 4.599253 1.303426 -2.265226
v 0.134730 0.695900 -2.699000
vn 4.266831 2.762513 0.003037
v 0.134730 1.989050 -0.459450
vn 5.880121 -1.442687 -0.000761
v 0.134730 1.825110 -0.459450
vn 4.419117 -1.623029 -0.931698
v 0.134730 0.532270 -2.699000
vn -1.836457 3.668411 -3.487140
v 0.115730 0.696980 -2.699140
vn -1.674542 5.009512 -1.515737
v 0.115730 1.989550 -0.460320
vn 1.674502 5.009645 -1.515723
v 0.133730 1.989550 -0.460320
vn 1.836480 3.668332 -3.487175
v 0.133730 0.696980 -2.699140
vn -4.419120 -1.623091 -0.931748
v 0.114730 0.532270 -2.699000
vn -5.880399 -1.442851 -0.000889
v 0.114730 1.825110 -0.459450
vn -4.599163 1.303497 -2.265207
v 0.114730 0.695900 -2.699000
vn 1.708544 -4.103867 -0.034530
v 0.133730 0.531040 -2.699140
vn 2.515538 -5.139184 1.701020
v 0.133730 1.823610 -0.460320
vn -2.515494 -5.139106 1.701083
v 0.115730 1.823610 -0.460320
vn -1.708483 -4.103914 -0.034546
v 0.115730 0.531040 -2.699140
vn -4.599270 1.303423 2.265213
v 0.114730 0.165360 2.699000
vn -4.418880 -1.622816 0.931823
v 0.114730 0.001730 2.699000
vn 1.836556 3.668326 3.487088
v 0.133730 0.166440 2.699140
vn 1.669413 5.014234 1.515564
v 0.133730 1.989550 -0.458590
vn -1.669653 5.014512 1.515659
v 0.115730 1.989550 -0.458590
vn -1.836285 3.668108 3.487020
v 0.115730 0.166440 2.699140
vn 4.419092 -1.623100 0.931718
v 0.134730 0.001730 2.699000
vn 4.599338 1.303532 2.265231
v 0.134730 0.165360 2.699000
vn -1.708515 -4.103808 0.034589
v 0.115730 0.000500 2.699140
vn -2.521469 -5.134837 -1.697115
v 0.115730 1.823610 -0.458590
vn 2.521623 -5.135118 -1.697350
v 0.133730 1.823610 -0.458590
vn 1.708237 -4.103633 0.034721
v 0.133730 0.000500 2.699140
vn 1.713386 -2.074326 3.550569
v 0.133730 0.001000 2.700000
vn 1.835910 1.174598 4.934298
v 0.133730 0.164940 2.700000
vn -1.835910 1.174598 4.934298
v 0.115730 0.164940 2.700000
vn -1.713391 -2.074326 3.550573
v 0.115730 0.001000 2.700000
vn -1.713372 -2.074354 -3.550483
v 0.115730 0.531540 -2.700000
vn -1.835910 1.174585 -4.934309
v 0.115730 0.695480 -2.700000
vn 1.835909 1.174585 -4.934308
v 0.133730 0.695480 -2.700000
vn 1.713376 -2.074353 -3.550487
v 0.133730 0.531540 -2.700000
# 71 vertices, 0 vertices normals


usemtl material_0
vt 0.054280 0.011060
vt 0.037090 0.702190
vt 0.074270 0.701460
f 1/1/1 2/2/2 3/3/3
vt 0.090980 0.009380
f 1/1/1 3/3/3 4/4/4
vt 0.079490 0.008370
vt 0.060510 0.700160
vt 0.048390 0.711250
f 5/5/5 6/6/6 7/7/7
vt 0.066840 0.011340
f 5/5/5 7/7/7 8/8/8
vt 0.055470 0.001420
vt 0.037340 0.685460
vt 0.072910 0.691940
f 9/9/9 10/10/10 11/11/11
vt 0.091930 0.006720
f 9/9/9 11/11/11 12/12/12
vt 0.079100 0.000500
vt 0.062170 0.702320
vt 0.049990 0.696760
f 13/13/13 14/14/14 15/15/15
vt 0.067090 0.001040
f 13/13/13 15/15/15 16/16/16
vt 0.034180 0.999450
vt 0.040230 0.022310
vt 0.007510 0.013800
f 17/17/17 18/18/18 19/19/19
vt 0.000500 0.992560
f 17/17/17 19/19/19 20/20/20
vt 0.013210 0.986340
vt 0.017710 0.003420
vt 0.028680 0.008540
f 21/21/21 7/22/7 6/23/6
vt 0.024040 0.999500
f 21/21/21 6/23/6 22/24/22
vt 0.034290 0.979690
vt 0.039880 0.009180
vt 0.006870 0.007440
f 23/25/23 24/26/24 25/27/25
vt 0.001820 0.979350
f 23/25/23 25/27/25 26/28/26
vt 0.011570 0.987890
vt 0.018360 0.002800
vt 0.029090 0.001960
f 27/29/27 15/30/15 14/31/14
vt 0.022910 0.982010
f 27/29/27 14/31/14 28/32/28
vt 0.066290 0.727070
vt 0.040910 0.780960
vt 0.047380 0.782600
f 29/33/29 30/34/30 31/35/31
vt 0.071700 0.730550
f 29/33/29 31/35/31 32/36/32
vt 0.065320 0.707930
vt 0.040700 0.759830
vt 0.046190 0.763820
f 33/37/33 34/38/34 35/39/35
vt 0.071360 0.709800
f 33/37/33 35/39/35 36/40/36
vt 0.065160 0.703240
vt 0.065170 0.703250
vt 0.065280 0.703000
f 3/41/3 24/42/24 14/43/14
vt 0.063840 0.703250
vt 0.063820 0.703240
vt 0.063950 0.703000
f 19/44/19 10/45/10 15/46/15
vt 0.038660 0.760070
vt 0.038550 0.760320
vt 0.038680 0.760080
f 2/47/2 7/48/7 25/49/25
vt 0.037210 0.760360
vt 0.037090 0.760600
vt 0.037200 0.760350
f 18/50/18 6/51/6 11/52/11
vt 0.071850 0.709350
vt 0.072220 0.710080
f 13/53/13 36/40/36 4/54/4
vt 0.046930 0.764330
vt 0.046130 0.764510
f 1/55/1 35/39/35 8/56/8
vt 0.040490 0.760530
vt 0.040020 0.759620
f 5/57/5 34/38/34 12/58/12
vt 0.064860 0.707590
vt 0.065690 0.707390
f 9/59/9 33/37/33 16/60/16
vt 0.071870 0.729880
vt 0.072380 0.730750
f 27/61/27 32/36/32 20/62/20
vt 0.047870 0.782950
vt 0.047010 0.783190
f 17/63/17 31/35/31 22/64/22
vt 0.040410 0.781440
vt 0.040020 0.780680
f 21/65/21 30/34/30 26/66/26
vt 0.065560 0.726600
vt 0.066330 0.726420
f 23/67/23 29/33/29 28/68/28
f 28/32/28 14/31/14 24/26/24
f 28/32/28 24/26/24 23/25/23
f 7/22/7 21/21/21 26/28/26
f 7/22/7 26/28/26 25/27/25
f 3/41/3 2/47/2 25/49/25
f 3/41/3 25/49/25 24/42/24
f 22/24/22 6/23/6 18/18/18
f 22/24/22 18/18/18 17/17/17
f 15/30/15 27/29/27 20/20/20
f 15/30/15 20/20/20 19/19/19
f 11/52/11 10/45/10 19/44/19
f 11/52/11 19/44/19 18/50/18
f 8/8/8 7/7/7 2/2/2
f 8/8/8 2/2/2 1/1/1
f 16/16/16 15/15/15 10/10/10
f 16/16/16 10/10/10 9/9/9
f 14/14/14 13/13/13 4/4/4
f 14/14/14 4/4/4 3/3/3
f 6/6/6 5/5/5 12/12/12
f 6/6/6 12/12/12 11/11/11
f 36/40/36 35/39/35 1/55/1
f 36/40/36 1/55/1 4/54/4
f 35/39/35 34/38/34 5/57/5
f 35/39/35 5/57/5 8/56/8
f 34/38/34 33/37/33 9/59/9
f 34/38/34 9/59/9 12/58/12
f 33/37/33 36/40/36 13/53/13
f 33/37/33 13/53/13 16/60/16
f 32/36/32 31/35/31 17/63/17
f 32/36/32 17/63/17 20/62/20
f 31/35/31 30/34/30 21/65/21
f 31/35/31 21/65/21 22/64/22
f 30/34/30 29/33/29 23/67/23
f 30/34/30 23/67/23 26/66/26
f 29/33/29 32/36/32 27/61/27
f 29/33/29 27/61/27 28/68/28
vt 0.088330 0.686510
vt 0.125180 0.002540
vt 0.085600 0.030680
f 37/69/37 38/70/38 39/71/39
vt 0.048810 0.714620
f 37/69/37 39/71/39 40/72/40
vt 0.065750 0.685250
vt 0.100000 0.001390
vt 0.110380 0.001920
f 41/73/41 42/74/42 43/75/43
vt 0.074850 0.685720
f 41/73/41 43/75/43 44/76/44
vt 0.088720 0.716660
vt 0.121730 0.032520
vt 0.085210 0.000500
f 45/77/45 46/78/46 14/79/14
vt 0.052260 0.684670
f 45/77/45 14/79/14 47/80/47
vt 0.063560 0.715570
vt 0.099090 0.031760
vt 0.108190 0.032230
f 48/81/48 49/82/49 50/83/50
vt 0.073950 0.716090
f 48/81/48 50/83/50 51/84/51
vt 0.032170 0.030770
vt 0.000500 0.998270
vt 0.039570 0.969190
f 52/85/52 14/86/14 46/87/46
vt 0.071170 0.001730
f 52/85/52 46/87/46 53/88/53
vt 0.055160 0.031600
vt 0.025360 0.998910
vt 0.015140 0.998590
f 54/89/54 55/90/55 56/91/56
vt 0.045860 0.031310
f 54/89/54 56/91/56 57/92/57
vt 0.031740 0.000500
vt 0.002820 0.968040
vt 0.039990 0.999500
f 58/93/58 39/94/39 38/95/38
vt 0.068860 0.031920
f 58/93/58 38/95/38 59/96/59
vt 0.056570 0.001080
vt 0.025850 0.968370
vt 0.016560 0.968070
f 60/97/60 61/98/61 62/99/62
vt 0.046360 0.000760
f 60/97/60 62/99/62 63/100/63
vt 0.186390 0.013020
vt 0.125740 0.020220
vt 0.126310 0.024990
f 64/101/64 65/102/65 66/103/66
vt 0.186960 0.017790
f 64/101/64 66/103/66 67/104/67
vt 0.997370 0.001480
vt 0.936300 0.000500
vt 0.936220 0.005300
f 68/105/68 69/106/69 70/107/70
vt 0.997290 0.006290
f 68/105/68 70/107/70 71/108/71
vt 0.006330 0.998840
vt 0.005870 0.999100
vt 0.006360 0.999300
f 49/109/49 39/110/39 62/111/62
vt 0.053800 0.718230
vt 0.053930 0.717710
vt 0.053440 0.717930
f 61/112/61 46/113/46 50/114/50
vt 0.123980 0.027630
vt 0.124330 0.027310
vt 0.123950 0.027250
f 43/115/43 55/116/55 38/117/38
vt 0.063140 0.716150
vt 0.063120 0.716620
vt 0.063430 0.716400
f 56/118/56 42/119/42 14/120/14
vt 0.125740 0.005420
vt 0.125970 0.005480
vt 0.126110 0.005100
f 48/121/48 71/122/71 40/123/40
vt 0.187470 0.005290
vt 0.187420 0.005290
vt 0.187020 0.005360
f 37/124/37 70/125/70 44/126/44
vt 0.186610 0.000510
vt 0.187020 0.000510
vt 0.187060 0.000500
f 41/127/41 69/128/69 47/129/47
vt 0.126530 0.010570
vt 0.126340 0.010220
vt 0.126120 0.010310
f 45/130/45 68/131/68 51/132/51
vt 0.187460 0.011020
vt 0.187230 0.010960
vt 0.187100 0.011350
f 60/133/60 67/134/67 53/135/53
vt 0.125740 0.011150
vt 0.125790 0.011150
vt 0.126190 0.011090
f 52/136/52 66/137/66 57/138/57
vt 0.126560 0.015940
vt 0.126160 0.015940
vt 0.126110 0.015940
f 54/139/54 65/140/65 59/141/59
vt 0.186640 0.005870
vt 0.186830 0.006220
vt 0.187050 0.006130
f 58/142/58 64/143/64 63/144/63
f 63/100/63 62/99/62 39/94/39
f 63/100/63 39/94/39 58/93/58
f 55/90/55 54/89/54 59/96/59
f 55/90/55 59/96/59 38/95/38
f 57/92/57 56/91/56 14/86/14
f 57/92/57 14/86/14 52/85/52
f 61/98/61 60/97/60 53/88/53
f 61/98/61 53/88/53 46/87/46
f 44/76/44 43/75/43 38/70/38
f 44/76/44 38/70/38 37/69/37
f 51/84/51 50/83/50 46/78/46
f 51/84/51 46/78/46 45/77/45
vt 0.128790 0.025550
vt 0.124500 0.027740
f 56/145/56 55/116/55 43/146/43
vt 0.128960 0.025980
f 56/145/56 43/146/43 42/147/42
vt 0.048980 0.716150
vt 0.048810 0.716580
f 50/114/50 49/148/49 62/149/62
vt 0.053260 0.718350
f 50/114/50 62/149/62 61/150/61
f 49/82/49 48/81/48 40/72/40
f 49/82/49 40/72/40 39/71/39
f 42/74/42 41/73/41 47/80/47
f 42/74/42 47/80/47 14/79/14
f 71/122/71 70/125/70 37/124/37
f 71/122/71 37/124/37 40/123/40
f 70/125/70 69/128/69 41/127/41
f 70/125/70 41/127/41 44/126/44
f 69/128/69 68/131/68 45/130/45
f 69/128/69 45/130/45 47/129/47
f 68/131/68 71/122/71 48/121/48
f 68/131/68 48/121/48 51/132/51
f 67/134/67 66/137/66 52/136/52
f 67/134/67 52/136/52 53/135/53
f 66/137/66 65/140/65 54/139/54
f 66/137/66 54/139/54 57/138/57
f 65/140/65 64/143/64 58/142/58
f 65/140/65 58/142/58 59/141/59
f 64/143/64 67/134/67 60/133/60
f 64/143/64 60/133/60 63/144/63
# 136 faces, 150 coords texture

# End of File
