####
#
# OBJ File Generated by Meshlab
#
####
# Object wall_roof_1.obj
#
# Vertices: 36
# Faces: 66
#
####
mtllib ./wall_roof_1.obj.mtl

vn -0.000310 0.000283 0.000181
v -0.037459 0.073795 -0.127812
vn -0.000310 0.000283 -0.000181
v -0.037460 0.073794 -1.656746
vn -0.000052 0.000137 -0.000077
v -0.042104 -0.000004 -1.784569
vn -0.000052 0.000137 0.000077
v -0.042103 -0.000004 0.000013
vn -0.000310 0.000283 0.000181
v -0.037460 0.255014 -0.441694
vn -0.000310 0.000283 -0.000181
v -0.037461 0.255013 -1.342866
vn -0.000233 0.000065 -0.000134
v -0.048738 0.075791 -1.653288
vn -0.000233 0.000065 0.000134
v -0.048738 0.075792 -0.131270
vn -0.000049 -0.000029 0.000100
v -0.047801 0.256012 -0.443423
vn -0.000049 -0.000029 -0.000100
v -0.047801 0.256012 -1.341137
vn -0.000180 0.000044 -0.000214
v -0.038398 0.256011 -1.341138
vn -0.000180 0.000044 0.000214
v -0.038398 0.256012 -0.443423
vn -0.000310 0.000283 0.000181
v -0.037461 0.436217 -0.755549
vn -0.000310 0.000283 -0.000181
v -0.037462 0.436217 -1.029013
vn -0.000233 0.000065 -0.000134
v -0.048738 0.257010 -1.339408
vn -0.000233 0.000065 0.000134
v -0.048738 0.257010 -0.445152
vn -0.000049 -0.000029 0.000100
v -0.047801 0.437215 -0.757278
vn -0.000049 -0.000029 -0.000100
v -0.047801 0.437215 -1.027283
vn -0.000180 0.000044 -0.000214
v -0.038399 0.437215 -1.027284
vn -0.000180 0.000044 0.000214
v -0.038399 0.437215 -0.757278
vn -0.000049 -0.000029 0.000100
v -0.047800 0.074794 -0.129541
vn -0.000049 -0.000029 -0.000100
v -0.047801 0.074793 -1.655017
vn -0.000180 0.000044 -0.000214
v -0.038397 0.074792 -1.655017
vn -0.000180 0.000044 0.000214
v -0.038396 0.074794 -0.129541
vn 0.000314 0.000272 0.000157
v -0.023801 0.438048 -0.758721
vn 0.000314 0.000272 -0.000157
v -0.023801 0.438050 -1.025837
vn 0.000209 0.000272 -0.000000
v -0.023801 0.515159 -0.892281
vn 0.000314 0.000272 0.000157
v -0.023801 0.257017 -0.445163
vn 0.000314 0.000272 -0.000157
v -0.023801 0.257237 -1.339014
vn 0.000314 0.000272 0.000157
v -0.023800 0.075850 -0.131370
vn 0.000314 0.000272 -0.000157
v -0.023801 0.076045 -1.652848
vn -0.000233 0.000065 0.000134
v -0.048738 0.438213 -0.759007
vn -0.000233 0.000065 -0.000134
v -0.048738 0.438213 -1.025555
vn -0.000209 0.000291 -0.000000
v -0.043896 0.515159 -0.892281
vn 0.000052 0.000136 -0.000079
v -0.023801 -0.000004 -1.784569
vn 0.000052 0.000136 0.000079
v -0.023800 -0.000004 0.000013
# 36 vertices, 0 vertices normals


usemtl material_0
vt 0.634304 0.194675
vt 0.220222 0.173658
vt 0.186542 0.150766
f 1/1/1 2/2/2 3/3/3
vt 0.669697 0.175438
f 1/1/1 3/3/3 4/4/4
vt 0.547357 0.243755
vt 0.303236 0.232337
vt 0.220871 0.177081
f 5/5/5 6/6/6 7/7/7
vt 0.632863 0.196660
f 5/5/5 7/7/7 8/8/8
vt 0.546514 0.246203
vt 0.303516 0.235362
vt 0.303816 0.232819
f 9/9/9 10/10/10 11/11/11
vt 0.547005 0.243973
f 9/9/9 11/11/11 12/12/12
vt 0.461203 0.293590
vt 0.387108 0.290433
vt 0.304229 0.235569
f 13/13/13 14/14/14 15/15/15
vt 0.546332 0.246081
f 13/13/13 15/15/15 16/16/16
vt 0.460631 0.296266
vt 0.387532 0.293307
vt 0.387774 0.290844
f 17/17/17 18/18/18 19/19/19
vt 0.460932 0.293894
f 17/17/17 19/19/19 20/20/20
vt 0.633124 0.196883
vt 0.220271 0.176798
vt 0.220680 0.174194
f 21/21/21 22/22/22 23/23/23
vt 0.633842 0.194812
f 21/21/21 23/23/23 24/24/24
f 24/24/24 23/23/23 2/2/2
f 24/24/24 2/2/2 1/1/1
f 12/12/12 11/11/11 6/6/6
f 12/12/12 6/6/6 5/5/5
f 16/16/16 15/15/15 10/10/10
f 16/16/16 10/10/10 9/9/9
f 20/20/20 19/19/19 14/14/14
f 20/20/20 14/14/14 13/13/13
vt 0.482058 0.712716
vt 0.554456 0.714518
vt 0.517712 0.735635
f 25/25/25 26/26/26 27/27/27
vt 0.398355 0.658910
vt 0.640618 0.664999
f 28/28/28 29/29/29 26/26/26
f 28/28/28 26/26/26 25/25/25
vt 0.314591 0.605061
vt 0.726963 0.615375
f 30/30/30 31/31/31 29/29/29
f 30/30/30 29/29/29 28/28/28
f 22/22/22 21/21/21 8/8/8
f 22/22/22 8/8/8 7/7/7
vt 0.460493 0.296246
f 18/18/18 17/17/17 32/32/32
vt 0.388319 0.293413
f 18/18/18 32/32/32 33/33/33
vt 0.424056 0.316825
f 33/33/33 32/32/32 34/34/34
f 27/27/27 26/26/26 33/33/33
f 27/27/27 33/33/33 34/34/34
f 25/25/25 17/17/17 20/20/20
f 25/25/25 20/20/20 13/13/13
f 25/25/25 32/32/32 17/17/17
f 25/25/25 27/27/27 34/34/34
f 25/25/25 34/34/34 32/32/32
f 28/28/28 9/9/9 12/12/12
f 28/28/28 12/12/12 5/5/5
f 28/28/28 25/25/25 13/13/13
f 28/28/28 13/13/13 16/16/16
f 28/28/28 16/16/16 9/9/9
f 30/30/30 21/21/21 24/24/24
f 30/30/30 24/24/24 1/1/1
f 30/30/30 28/28/28 5/5/5
f 30/30/30 5/5/5 8/8/8
f 30/30/30 8/8/8 21/21/21
f 26/26/26 29/29/29 15/15/15
f 26/26/26 15/15/15 14/14/14
f 26/26/26 14/14/14 19/19/19
f 26/26/26 18/18/18 33/33/33
f 26/26/26 19/19/19 18/18/18
f 29/29/29 31/31/31 7/7/7
f 29/29/29 7/7/7 6/6/6
f 29/29/29 6/6/6 11/11/11
f 29/29/29 11/11/11 10/10/10
f 29/29/29 10/10/10 15/15/15
vt 0.763203 0.594546
f 31/31/31 35/35/35 3/3/3
f 31/31/31 3/3/3 2/2/2
f 31/31/31 2/2/2 23/23/23
f 31/31/31 23/23/23 22/22/22
f 31/31/31 22/22/22 7/7/7
f 35/35/35 31/31/31 30/30/30
vt 0.279519 0.582514
f 35/35/35 30/30/30 36/36/36
f 36/36/36 30/30/30 1/1/1
f 36/36/36 1/1/1 4/4/4
# 66 faces, 36 coords texture

# End of File
