####
#
# OBJ File Generated by Meshlab
#
####
# Object door4m_glass.obj
#
# Vertices: 32
# Faces: 48
#
####
mtllib ./door4m_glass.obj.mtl

vn -1.570796 -1.570796 1.570796
v 2.926744 0.044108 0.075884
vn 1.570803 -1.570796 1.570796
v 3.986744 0.044108 0.075884
vn -1.570803 -1.570796 -1.570796
v 2.926744 0.044108 0.065894
vn 1.570796 -1.570796 -1.570796
v 3.986744 0.044108 0.065894
vn -1.570803 1.570796 1.570796
v 2.926744 2.180000 0.075884
vn 1.570796 1.570796 1.570796
v 3.986744 2.180000 0.075884
vn -1.570796 1.570796 -1.570796
v 2.926744 2.180000 0.065894
vn 1.570803 1.570796 -1.570796
v 3.986744 2.180000 0.065894
vn -1.570796 -1.570796 1.570796
v 1.954969 0.044108 0.058105
vn 1.570803 -1.570796 1.570796
v 3.014969 0.044108 0.058105
vn -1.570803 -1.570796 -1.570796
v 1.954969 0.044108 0.048115
vn 1.570796 -1.570796 -1.570796
v 3.014969 0.044108 0.048115
vn -1.570803 1.570796 1.570796
v 1.954969 2.180000 0.058105
vn 1.570796 1.570796 1.570796
v 3.014969 2.180000 0.058105
vn -1.570796 1.570796 -1.570796
v 1.954969 2.180000 0.048115
vn 1.570803 1.570796 -1.570796
v 3.014969 2.180000 0.048115
vn -1.570797 -1.570797 1.570796
v 0.983194 0.044108 0.040332
vn 1.570803 -1.570797 1.570796
v 2.043194 0.044108 0.040332
vn -1.570802 -1.570796 -1.570796
v 0.983194 0.044108 0.030342
vn 1.570796 -1.570796 -1.570796
v 2.043194 0.044108 0.030342
vn -1.570802 1.570794 1.570796
v 0.983194 2.180000 0.040333
vn 1.570796 1.570796 1.570796
v 2.043194 2.180000 0.040333
vn -1.570796 1.570796 -1.570796
v 0.983194 2.180000 0.030342
vn 1.570803 1.570795 -1.570796
v 2.043194 2.180000 0.030342
vn -1.570796 -1.570795 1.570796
v 0.011419 0.044108 0.022554
vn 1.570803 -1.570796 1.570796
v 1.071419 0.044108 0.022554
vn -1.570802 -1.570796 -1.570796
v 0.011419 0.044108 0.012563
vn 1.570796 -1.570794 -1.570796
v 1.071419 0.044108 0.012563
vn -1.570802 1.570796 1.570796
v 0.011419 2.180000 0.022554
vn 1.570796 1.570796 1.570796
v 1.071419 2.180000 0.022554
vn -1.570797 1.570797 -1.570796
v 0.011419 2.180000 0.012564
vn 1.570803 1.570797 -1.570796
v 1.071419 2.180000 0.012564
# 32 vertices, 0 vertices normals


usemtl material_0
vt 1.000000 0.000000
vt 1.000000 1.000000
vt 0.000000 1.000000
f 1/1/1 3/2/3 4/3/4
vt 0.000000 0.000000
f 4/3/4 2/4/2 1/1/1
f 5/4/5 6/1/6 8/2/8
f 8/2/8 7/3/7 5/4/5
f 1/4/1 2/1/2 6/2/6
f 6/2/6 5/3/5 1/4/1
f 2/4/2 4/1/4 8/2/8
f 8/2/8 6/3/6 2/4/2
f 4/4/4 3/1/3 7/2/7
f 7/2/7 8/3/8 4/4/4
f 3/4/3 1/1/1 5/2/5
f 5/2/5 7/3/7 3/4/3
f 9/1/9 11/2/11 12/3/12
f 12/3/12 10/4/10 9/1/9
f 13/4/13 14/1/14 16/2/16
f 16/2/16 15/3/15 13/4/13
f 9/4/9 10/1/10 14/2/14
f 14/2/14 13/3/13 9/4/9
f 10/4/10 12/1/12 16/2/16
f 16/2/16 14/3/14 10/4/10
f 12/4/12 11/1/11 15/2/15
f 15/2/15 16/3/16 12/4/12
f 11/4/11 9/1/9 13/2/13
f 13/2/13 15/3/15 11/4/11
f 17/1/17 19/2/19 20/3/20
f 20/3/20 18/4/18 17/1/17
f 21/4/21 22/1/22 24/2/24
f 24/2/24 23/3/23 21/4/21
f 17/4/17 18/1/18 22/2/22
f 22/2/22 21/3/21 17/4/17
f 18/4/18 20/1/20 24/2/24
f 24/2/24 22/3/22 18/4/18
f 20/4/20 19/1/19 23/2/23
f 23/2/23 24/3/24 20/4/20
f 19/4/19 17/1/17 21/2/21
f 21/2/21 23/3/23 19/4/19
f 25/1/25 27/2/27 28/3/28
f 28/3/28 26/4/26 25/1/25
f 29/4/29 30/1/30 32/2/32
f 32/2/32 31/3/31 29/4/29
f 25/4/25 26/1/26 30/2/30
f 30/2/30 29/3/29 25/4/25
f 26/4/26 28/1/28 32/2/32
f 32/2/32 30/3/30 26/4/26
f 28/4/28 27/1/27 31/2/31
f 31/2/31 32/3/32 28/4/28
f 27/4/27 25/1/25 29/2/29
f 29/2/29 31/3/31 27/4/27
# 48 faces, 4 coords texture

# End of File
