# Blender 3.1.0
# www.blender.org

v -0.000161 -0.706093 1.950356
v -0.000240 0.684744 -0.458621
v -0.000240 -0.175594 -1.950495
v -0.000240 0.684744 -0.460361
v -0.000161 -0.806093 1.950356
v -0.000240 0.584744 -0.458621
v -0.000240 -0.275594 -1.950495
v -0.000240 0.584744 -0.460361
v -0.100161 -0.706093 1.950356
v -0.100240 0.684744 -0.458621
v -0.100240 0.684744 -0.460361
v -0.100240 -0.175594 -1.950495
v -0.100161 -0.806093 1.950356
v -0.100240 0.584744 -0.458621
v -0.100240 0.584744 -0.460361
v -0.100240 -0.275594 -1.950495
vn 1.0000 -0.0000 -0.0000
vn -1.0000 -0.0000 -0.0000
vn -0.0000 -0.8660 -0.5000
vn -0.0000 1.0000 -0.0000
vn -0.0000 -0.0000 -1.0000
vn -0.0000 -1.0000 -0.0000
vn -0.0000 0.8660 -0.5000
vn -0.0000 0.8660 0.5000
vn -0.0000 -0.0000 1.0000
vn -0.0000 -0.8660 0.5000
vt 0.884609 0.378469
vt 1.787738 0.505411
vt -0.156435 0.675444
vt -0.167557 0.682755
vt -0.152623 0.359737
vt 0.325391 0.503554
vt 0.330496 0.555736
vt -0.367820 0.672592
vt -0.416065 0.502625
vt -0.237778 0.544895
vt -0.167466 0.683535
vt 0.324192 0.503553
vt 0.900298 0.414247
vt 0.997446 0.610157
vt -0.214493 0.675166
vt -0.134132 0.677001
vt -0.136934 0.395515
vt -0.413310 0.620713
vt -0.060988 0.677020
vt 0.347455 0.515985
vt -0.309782 0.674287
vt 0.392704 0.676095
vt -0.220818 0.505144
vt -0.134042 0.677780
vt -0.060988 0.675906
vt -0.396733 0.680980
vt -0.119228 0.433827
vt 1.787770 0.474176
vt -0.156539 0.701767
vt -0.123158 0.677610
vt 0.916513 0.426467
vt 0.325423 0.472319
vt -0.237726 0.563565
vt -0.123084 0.676828
vt 0.324224 0.472318
vt 0.331929 0.569698
vt -0.368452 0.698906
vt -0.416033 0.471390
vt -0.135081 0.469485
vt 0.997630 0.640290
vt -0.214597 0.701489
vt -0.089624 0.682296
vt 0.900660 0.462126
vt -0.413125 0.650846
vt -0.084858 0.677020
vt -0.221628 0.603716
vt -0.089550 0.681513
vt -0.084858 0.675906
vt -0.396903 0.647670
vt 0.348026 0.609849
vt -0.310414 0.700601
vt 0.392534 0.642785
s 0
usemtl pine
f 3/7/1 4/10/1 8/23/1 7/20/1
f 4/11/1 2/4/1 6/16/1 8/24/1
f 2/5/1 1/1/1 5/13/1 6/17/1
f 12/36/2 16/50/2 15/46/2 11/33/2
f 11/34/2 15/47/2 14/42/2 10/30/2
f 10/31/2 14/43/2 13/39/2 9/27/2
f 5/14/3 13/40/3 14/44/3 6/18/3
f 4/12/4 11/35/4 10/32/4 2/6/4
f 7/21/5 16/51/5 12/37/5 3/8/5
f 6/19/6 14/45/6 15/48/6 8/25/6
f 3/9/7 12/38/7 11/35/7 4/12/7
f 2/6/8 10/32/8 9/28/8 1/2/8
f 1/3/9 9/29/9 13/41/9 5/15/9
f 8/26/10 15/49/10 16/52/10 7/22/10
