# Blender 3.1.0
# www.blender.org

v -0.000165 -0.850204 2.450412
v -0.000240 0.829344 -0.458621
v -0.000240 -0.319649 -2.450457
v -0.000240 0.829344 -0.460361
v -0.000165 -0.950204 2.450412
v -0.000240 0.729344 -0.458621
v -0.000240 -0.419649 -2.450457
v -0.000240 0.729344 -0.460361
v -0.100165 -0.850204 2.450412
v -0.100240 0.829344 -0.458621
v -0.100240 0.829344 -0.460361
v -0.100240 -0.319649 -2.450457
v -0.100165 -0.950204 2.450412
v -0.100240 0.729344 -0.458621
v -0.100240 0.729344 -0.460361
v -0.100240 -0.419649 -2.450457
vn 1.0000 -0.0000 -0.0000
vn -1.0000 -0.0000 -0.0000
vn -0.0000 -0.8660 -0.5000
vn -0.0000 1.0000 -0.0000
vn -0.0000 -0.0000 -1.0000
vn -0.0000 -1.0000 -0.0000
vn -0.0000 0.8660 -0.5000
vn -0.0000 0.8660 0.5000
vn -0.0000 -0.0000 1.0000
vn -0.0000 -0.8660 0.5000
vt 0.818610 0.377513
vt 1.706849 0.505332
vt -0.099582 0.677399
vt -0.165415 0.682437
vt -0.147044 0.360074
vt 0.324916 0.503578
vt 0.320609 0.556007
vt -0.384575 0.673786
vt -0.396112 0.502674
vt -0.243774 0.545240
vt -0.165336 0.683118
vt 0.323715 0.503576
vt 0.834091 0.412816
vt 0.907540 0.611030
vt -0.150219 0.677157
vt -0.136263 0.677418
vt -0.131563 0.395376
vt -0.405863 0.620858
vt -0.062514 0.676949
vt 0.337958 0.515344
vt -0.333955 0.675264
vt 0.379242 0.676560
vt -0.226425 0.504577
vt -0.136184 0.678098
vt -0.062514 0.675977
vt -0.404790 0.681412
vt -0.053325 0.433595
vt 1.706881 0.474049
vt -0.099672 0.700358
vt -0.121010 0.677860
vt 0.910940 0.426743
vt 0.324948 0.472294
vt -0.243726 0.563042
vt -0.120945 0.677177
vt 0.323747 0.472293
vt 0.322029 0.569133
vt -0.385126 0.696736
vt -0.396080 0.471391
vt -0.068967 0.468779
vt 0.907722 0.640762
vt -0.150309 0.700116
vt -0.091762 0.681946
vt 0.895298 0.461927
vt -0.405680 0.650590
vt -0.083333 0.676949
vt -0.227260 0.604114
vt -0.091697 0.681264
vt -0.083333 0.675977
vt -0.404964 0.647338
vt 0.338495 0.610205
vt -0.334506 0.698214
vt 0.379068 0.642486
s 0
usemtl pine
f 3/7/1 4/10/1 8/23/1 7/20/1
f 4/11/1 2/4/1 6/16/1 8/24/1
f 2/5/1 1/1/1 5/13/1 6/17/1
f 12/36/2 16/50/2 15/46/2 11/33/2
f 11/34/2 15/47/2 14/42/2 10/30/2
f 10/31/2 14/43/2 13/39/2 9/27/2
f 5/14/3 13/40/3 14/44/3 6/18/3
f 4/12/4 11/35/4 10/32/4 2/6/4
f 7/21/5 16/51/5 12/37/5 3/8/5
f 6/19/6 14/45/6 15/48/6 8/25/6
f 3/9/7 12/38/7 11/35/7 4/12/7
f 2/6/8 10/32/8 9/28/8 1/2/8
f 1/3/9 9/29/9 13/41/9 5/15/9
f 8/26/10 15/49/10 16/52/10 7/22/10
