# Blender 3.1.0
# www.blender.org

v -0.000167 -0.922591 2.700104
v -0.000240 0.901118 -0.458621
v -0.000240 -0.392126 -2.700304
v -0.000240 0.901118 -0.460361
v -0.000167 -1.022591 2.700104
v -0.000240 0.801118 -0.458621
v -0.000240 -0.492126 -2.700304
v -0.000240 0.801118 -0.460361
v -0.100167 -0.922591 2.700104
v -0.100240 0.901118 -0.458621
v -0.100240 0.901118 -0.460361
v -0.100240 -0.392126 -2.700304
v -0.100167 -1.022591 2.700104
v -0.100240 0.801118 -0.458621
v -0.100240 0.801118 -0.460361
v -0.100240 -0.492126 -2.700304
vn 1.0000 -0.0000 -0.0000
vn -1.0000 -0.0000 -0.0000
vn -0.0000 -0.8660 -0.5000
vn -0.0000 1.0000 -0.0000
vn -0.0000 -0.0000 -1.0000
vn -0.0000 -1.0000 -0.0000
vn -0.0000 0.8660 -0.5000
vn -0.0000 0.8660 0.5000
vn -0.0000 -0.0000 1.0000
vn -0.0000 -0.8660 0.5000
vt 0.791441 0.377100
vt 1.672424 0.505298
vt -0.070613 0.678190
vt -0.164585 0.682314
vt -0.145520 0.360179
vt 0.324764 0.503587
vt 0.315836 0.556056
vt -0.393414 0.674180
vt -0.387873 0.502694
vt -0.245446 0.545349
vt -0.164510 0.682956
vt 0.323563 0.503585
vt 0.806852 0.412246
vt 0.870539 0.611373
vt -0.118374 0.677962
vt -0.137088 0.677580
vt -0.130108 0.395324
vt -0.403837 0.620909
vt -0.063105 0.676921
vt 0.333303 0.515115
vt -0.345669 0.675574
vt 0.372694 0.676717
vt -0.227979 0.504407
vt -0.137014 0.678222
vt -0.063105 0.676005
vt -0.407030 0.681542
vt -0.026195 0.433480
vt 1.672456 0.473996
vt -0.070699 0.699845
vt -0.120177 0.677957
vt 0.909418 0.426832
vt 0.324796 0.472285
vt -0.245399 0.562885
vt -0.120116 0.677313
vt 0.323595 0.472283
vt 0.317247 0.568942
vt -0.393934 0.695827
vt -0.387841 0.471392
vt -0.041768 0.468508
vt 0.870720 0.640973
vt -0.118459 0.699616
vt -0.092591 0.681811
vt 0.893846 0.461860
vt -0.403655 0.650508
vt -0.082741 0.676921
vt -0.228820 0.604237
vt -0.092530 0.681167
vt -0.082741 0.676004
vt -0.407205 0.647236
vt 0.333826 0.610294
vt -0.346189 0.697221
vt 0.372519 0.642410
s 0
usemtl pine
f 3/7/1 4/10/1 8/23/1 7/20/1
f 4/11/1 2/4/1 6/16/1 8/24/1
f 2/5/1 1/1/1 5/13/1 6/17/1
f 12/36/2 16/50/2 15/46/2 11/33/2
f 11/34/2 15/47/2 14/42/2 10/30/2
f 10/31/2 14/43/2 13/39/2 9/27/2
f 5/14/3 13/40/3 14/44/3 6/18/3
f 4/12/4 11/35/4 10/32/4 2/6/4
f 7/21/5 16/51/5 12/37/5 3/8/5
f 6/19/6 14/45/6 15/48/6 8/25/6
f 3/9/7 12/38/7 11/35/7 4/12/7
f 2/6/8 10/32/8 9/28/8 1/2/8
f 1/3/9 9/29/9 13/41/9 5/15/9
f 8/26/10 15/49/10 16/52/10 7/22/10
